<svg viewBox="209 139 706 495" fill="none" stroke-linecap="square" stroke-miterlimit="10" xmlns="http://www.w3.org/2000/svg"><clipPath id="a"><path d="M0 0h1024v768H0V0z"/></clipPath><g clip-path="url(#a)"><path d="M0 0h1024v768H0z"/><path d="M366 140h292v181.984H366z"/><path stroke="#000" stroke-width="2" stroke-linejoin="round" stroke-linecap="butt" d="M366 140h292v181.984H366z"/><path fill="#000" d="M446.016 152.938h3.218q2.282 0 3.297.688 1.02.672 1.02 2.14 0 1.016-.58 1.672-.56.656-1.64.86v.078q2.6.437 2.6 2.734 0 1.53-1.03 2.39-1.033.86-2.892.86h-3.983v-11.422zm1.328 4.89h2.187q1.41 0 2.02-.437.63-.45.63-1.5 0-.95-.69-1.37-.685-.432-2.185-.432h-1.953v3.75zm0 1.126v4.265h2.375q1.39 0 2.07-.54.7-.53.7-1.67 0-1.06-.72-1.56-.702-.5-2.17-.5h-2.266zm14.1 5.406l-.25-1.22h-.06q-.642.798-1.282 1.095-.64.28-1.594.28-1.266 0-2-.655-.72-.656-.72-1.875 0-2.594 4.157-2.72l1.453-.046v-.54q0-1-.437-1.485-.43-.485-1.39-.485-1.06 0-2.42.657l-.39-.985q.63-.343 1.38-.53.767-.204 1.517-.204 1.53 0 2.266.687.75.672.75 2.172v5.843h-.97zm-2.92-.922q1.203 0 1.89-.656.703-.672.703-1.86v-.78l-1.297.062q-1.547.047-2.234.484-.688.422-.688 1.313 0 .71.422 1.08.438.36 1.203.36zm9.976 1.078q-1.86 0-2.875-1.14-1.016-1.157-1.016-3.25 0-2.14 1.03-3.313 1.03-1.172 2.95-1.172.61 0 1.22.15.62.126.98.298l-.407 1.11q-.42-.173-.938-.28-.5-.127-.89-.127-2.61 0-2.61 3.328 0 1.58.624 2.423.64.844 1.89.844 1.08 0 2.204-.452v1.14q-.86.456-2.17.456zm5.477-4.547q.343-.47 1.03-1.25l2.766-2.93h1.532l-3.47 3.64 3.72 4.92h-1.578l-3.016-4.047-.98.843v3.203h-1.28V152.2h1.287v6.437q0 .44-.064 1.33h.063zm14.132-4.18v.81l-1.6.188q.22.28.39.72.17.44.17 1 0 1.25-.86 2t-2.36.75q-.375 0-.718-.06-.83.435-.83 1.11 0 .34.283.513.297.17 1 .17h1.515q1.39 0 2.14.595.75.58.75 1.702 0 1.42-1.14 2.155-1.14.75-3.33.75-1.686 0-2.593-.626-.906-.627-.906-1.768 0-.78.5-1.36.5-.562 1.41-.765-.33-.156-.56-.47-.22-.31-.22-.717 0-.466.25-.81.25-.36.8-.686-.67-.28-1.096-.938-.408-.658-.408-1.5 0-1.408.84-2.158.846-.766 2.39-.766.674 0 1.206.16h2.97zm-6.83 10q0 .702.58 1.06.59.36 1.68.36 1.623 0 2.404-.5.797-.485.797-1.313 0-.703-.44-.984-.42-.267-1.61-.267h-1.56q-.874 0-1.374.422-.486.435-.486 1.217zm.7-7.267q0 .906.5 1.375.51.453 1.42.453 1.89 0 1.89-1.845 0-1.938-1.92-1.938-.91 0-1.41.5-.486.482-.486 1.45zm11.78-2.89q.58 0 1.03.093l-.19 1.203q-.53-.125-.938-.125-1.03 0-1.78.843-.737.843-.737 2.11v4.592h-1.297v-8.564h1.077l.14 1.577h.066q.486-.827 1.158-1.28.674-.454 1.47-.454zm10.012 4.42q0 2.095-1.06 3.282-1.05 1.17-2.91 1.17-1.14 0-2.03-.53-.89-.547-1.375-1.547-.484-1.015-.484-2.375 0-2.094 1.047-3.25 1.046-1.17 2.905-1.17 1.797 0 2.844 1.202 1.06 1.188 1.06 3.22zm-6.515 0q0 1.642.656 2.5.656.86 1.922.86 1.28 0 1.935-.843.658-.86.658-2.516 0-1.623-.656-2.47-.654-.856-1.95-.856-1.267 0-1.923.844-.64.827-.64 2.483zm10.007-4.264v5.546q0 1.046.47 1.562.483.514 1.5.514 1.342 0 1.967-.735.628-.734.628-2.39v-4.5h1.297v8.562h-1.08l-.187-1.16h-.06q-.407.64-1.11.984-.703.328-1.61.328-1.56 0-2.343-.733-.78-.75-.78-2.39v-5.594h1.31zm14.46 8.562v-5.55q0-1.046-.484-1.56-.47-.516-1.484-.516-1.345 0-1.97.733-.625.717-.625 2.39v4.5h-1.294v-8.563h1.062l.203 1.17h.065q.408-.64 1.127-.982.72-.344 1.593-.344 1.544 0 2.325.75.78.737.78 2.377v5.594h-1.294zm9.79-1.158h-.063q-.903 1.312-2.685 1.312-1.688 0-2.626-1.14-.92-1.158-.92-3.283 0-2.11.933-3.28.94-1.173 2.61-1.173 1.734 0 2.67 1.268h.095l-.05-.624-.03-.593v-3.48h1.297v12.16h-1.063l-.173-1.158zm-2.594.22q1.328 0 1.92-.72.61-.72.61-2.328v-.283q0-1.812-.61-2.593-.61-.78-1.936-.78-1.14 0-1.75.89-.595.89-.595 2.5 0 1.64.592 2.485.61.83 1.765.83zm16.257-1.408q0 1.202-.89 1.86-.89.64-2.5.64-1.704 0-2.657-.548v-1.206q.61.313 1.314.5.72.172 1.376.172 1.014 0 1.56-.312.548-.327.548-1 0-.5-.437-.843-.436-.36-1.686-.845-1.203-.453-1.703-.78-.5-.33-.75-.75-.25-.423-.25-1.017 0-1.047.844-1.64.86-.61 2.344-.61 1.39 0 2.702.563l-.453 1.05q-1.295-.53-2.342-.53-.924 0-1.39.296-.47.282-.47.797 0 .343.17.593.188.234.58.453.39.22 1.5.626 1.514.564 2.046 1.126.55.563.55 1.406zm5.523 2.5q-1.857 0-2.873-1.14-1.014-1.158-1.014-3.25 0-2.14 1.034-3.314 1.03-1.17 2.953-1.17.61 0 1.218.14.628.125.988.297l-.407 1.107q-.42-.17-.94-.28-.5-.125-.89-.125-2.61 0-2.61 3.33 0 1.576.626 2.42.64.844 1.89.844 1.078 0 2.203-.455v1.14q-.86.454-2.17.454zm8.103-8.876q.58 0 1.03.096l-.187 1.203q-.53-.127-.938-.127-1.033 0-1.783.843-.735.844-.735 2.11v4.593h-1.29v-8.564h1.078l.14 1.58h.064q.485-.828 1.157-1.28.67-.455 1.47-.455zm3.92 8.72h-1.296v-8.56h1.3v8.56zm-1.405-10.89q0-.44.22-.64.217-.22.545-.22.31 0 .53.22.234.2.234.64 0 .438-.237.657-.22.217-.53.217-.33 0-.55-.218-.22-.22-.22-.658zm8.14 11.047q-.83 0-1.53-.313-.69-.313-1.16-.953h-.09q.092.75.092 1.44v3.518h-1.295v-12.4h1.064l.17 1.17h.06q.5-.704 1.158-1.016.67-.312 1.53-.312 1.704 0 2.626 1.174.936 1.158.936 3.25 0 2.11-.953 3.28-.938 1.175-2.61 1.175zm-.19-7.78q-1.31 0-1.903.732-.577.714-.593 2.31v.28q0 1.812.595 2.593.61.766 1.936.766 1.11 0 1.734-.89.64-.908.64-2.486 0-1.594-.64-2.454-.624-.86-1.765-.86zm8.777 6.7q.344 0 .657-.046.33-.042.517-.104v1q-.206.11-.627.172-.408.06-.736.06-2.486 0-2.486-2.624v-5.09h-1.22v-.625l1.22-.53.547-1.83h.75v1.984h2.486v1h-2.484v5.05q0 .765.36 1.187.374.408 1.015.408z"/><path d="M210 401h292v209.984H210z"/><path stroke="#000" stroke-width="2" stroke-linejoin="round" stroke-linecap="butt" d="M210 401h292v209.984H210z"/><path fill="#000" d="M310.05 419.532q0 2.828-1.53 4.328-1.532 1.5-4.422 1.5h-3.157v-11.422h3.5q2.66 0 4.13 1.484 1.49 1.47 1.49 4.11zm-1.405.047q0-2.24-1.125-3.36-1.11-1.14-3.33-1.14h-1.92v9.12h1.61q2.374 0 3.56-1.16 1.205-1.17 1.205-3.47zm7.382 5.93q-1.906 0-3-1.16-1.093-1.156-1.093-3.22 0-2.06 1.015-3.28 1.01-1.22 2.73-1.22 1.61 0 2.54 1.064.938 1.047.938 2.78v.83h-5.89q.03 1.5.75 2.28.734.782 2.046.782 1.375 0 2.735-.58v1.157q-.69.3-1.314.424-.61.14-1.47.14zm-.36-7.8q-1.03 0-1.64.67-.61.673-.718 1.86h4.46q0-1.218-.55-1.874-.546-.657-1.562-.657zm7.587 7.64l-3.25-8.563h1.39l1.844 5.08q.625 1.78.735 2.31h.062q.094-.42.547-1.718.453-1.3 2.047-5.674h1.39l-3.25 8.563h-1.52zm14.016 0h-1.33V415.1h-3.624v-1.17h8.563v1.172h-3.61v10.25zm12.523-4.297q0 2.094-1.063 3.28-1.046 1.173-2.906 1.173-1.14 0-2.03-.53-.892-.548-1.376-1.548-.484-1.017-.484-2.376 0-2.092 1.046-3.25 1.047-1.17 2.907-1.17 1.797 0 2.843 1.204 1.063 1.19 1.063 3.22zm-6.516 0q0 1.64.657 2.5.656.86 1.92.86 1.283 0 1.94-.844.655-.86.655-2.517 0-1.626-.66-2.47-.66-.86-1.96-.86-1.266 0-1.922.845-.64.826-.64 2.482zm16.18 0q0 2.094-1.062 3.28-1.047 1.173-2.907 1.173-1.14 0-2.03-.53-.892-.548-1.376-1.548-.484-1.017-.484-2.376 0-2.092 1.047-3.25 1.046-1.17 2.906-1.17 1.8 0 2.85 1.204 1.06 1.19 1.06 3.22zm-6.516 0q0 1.64.66 2.5.66.86 1.92.86 1.28 0 1.94-.844.66-.86.66-2.517 0-1.626-.654-2.47-.656-.86-1.953-.86-1.266 0-1.922.845-.64.826-.64 2.482zm10.09 4.297h-1.29V413.2h1.297v12.157zm8.28-2.343q0 1.203-.89 1.86-.89.64-2.5.64-1.7 0-2.65-.547v-1.203q.61.312 1.31.5.72.17 1.376.17 1.015 0 1.56-.31.55-.33.55-1 0-.5-.44-.845-.437-.36-1.687-.846-1.205-.454-1.705-.78-.5-.33-.75-.75-.25-.424-.25-1.018 0-1.046.844-1.64.86-.61 2.343-.61 1.39 0 2.705.564l-.453 1.047q-1.296-.53-2.343-.53-.922 0-1.39.292-.47.28-.47.795 0 .342.173.592.186.232.577.45.39.22 1.5.625 1.514.563 2.046 1.126.55.56.55 1.406zm10.24 2.5q-.82 0-1.53-.31-.68-.314-1.15-.954h-.092q.094.75.094 1.436v3.514h-1.297v-12.41h1.063l.17 1.172h.062q.5-.704 1.157-1.016.67-.312 1.53-.312 1.704 0 2.626 1.172.938 1.155.938 3.25 0 2.11-.95 3.28-.938 1.172-2.61 1.172zm-.18-7.78q-1.31 0-1.905.733-.58.72-.594 2.313v.28q0 1.812.594 2.593.61.764 1.936.764 1.11 0 1.732-.89.64-.907.64-2.486 0-1.594-.64-2.454-.626-.86-1.767-.86zm11.275 7.624l-.25-1.22h-.063q-.64.8-1.28 1.097-.642.28-1.595.28-1.265 0-2-.656-.72-.654-.72-1.873 0-2.595 4.158-2.72l1.453-.047v-.534q0-1-.44-1.483-.436-.483-1.39-.483-1.062 0-2.42.657l-.39-.983q.623-.343 1.373-.53.766-.203 1.516-.203 1.53 0 2.263.69.75.675.75 2.175v5.844h-.97zm-2.922-.92q1.204 0 1.89-.656.705-.673.705-1.86v-.78l-1.3.06q-1.544.048-2.232.485-.687.42-.687 1.312 0 .703.42 1.08.437.357 1.203.357zm13.57-7.64v.81l-1.593.19q.22.28.392.72.17.436.17 1 0 1.25-.86 2t-2.36.75q-.374 0-.72-.064-.83.436-.83 1.11 0 .342.28.514.3.17 1 .17h1.52q1.39 0 2.14.594.75.58.75 1.704 0 1.42-1.14 2.156-1.14.75-3.33.75-1.69 0-2.596-.624-.906-.626-.906-1.767 0-.78.5-1.36.5-.56 1.405-.765-.328-.155-.562-.47-.215-.31-.215-.716 0-.47.25-.814.25-.36.797-.687-.67-.28-1.093-.94-.407-.652-.407-1.5 0-1.402.844-2.152.84-.768 2.39-.768.67 0 1.2.157h2.97zm-6.827 10q0 .703.576 1.06.594.36 1.688.36 1.625 0 2.406-.5.796-.483.796-1.31 0-.704-.44-.986-.42-.266-1.61-.266h-1.56q-.876 0-1.376.423-.48.437-.48 1.218zm.7-7.266q0 .905.5 1.374.518.455 1.424.455 1.89 0 1.89-1.844 0-1.937-1.92-1.937-.908 0-1.408.5-.486.483-.486 1.452zm11.5 5.983q-1.904 0-3-1.157t-1.092-3.22q0-2.06 1.016-3.28 1.015-1.22 2.733-1.22 1.61 0 2.545 1.063.938 1.048.938 2.78v.83h-5.89q.03 1.5.75 2.28.738.783 2.05.783 1.375 0 2.734-.58v1.16q-.686.298-1.31.423-.61.14-1.47.14zm-.36-7.798q-1.03 0-1.64.67-.61.67-.72 1.86h4.47q0-1.22-.545-1.876-.546-.66-1.56-.66z"/><path d="M226 438h260v86.992H226z"/><path stroke="#000" stroke-width="2" stroke-linejoin="round" stroke-linecap="butt" d="M226 438h260v86.992H226z"/><path fill="#000" d="M245.688 456.532q0 2.828-1.532 4.328-1.53 1.5-4.422 1.5h-3.156v-11.422h3.5q2.656 0 4.125 1.484 1.484 1.47 1.484 4.11zm-1.407.047q0-2.24-1.12-3.36-1.11-1.14-3.33-1.14h-1.92v9.12h1.61q2.38 0 3.56-1.16 1.2-1.17 1.2-3.47zm7.39 5.93q-1.903 0-3-1.16t-1.09-3.22q0-2.06 1.016-3.28 1.016-1.22 2.734-1.22 1.61 0 2.547 1.064.94 1.047.94 2.78v.83h-5.89q.03 1.5.75 2.28.733.782 2.046.782 1.377 0 2.736-.58v1.157q-.688.3-1.31.424-.61.14-1.47.14zm-.36-7.8q-1.03 0-1.64.67-.61.673-.72 1.86h4.47q0-1.218-.544-1.874-.547-.657-1.562-.657zm7.59 7.64l-3.25-8.563h1.39l1.845 5.08q.625 1.78.734 2.31h.062q.094-.42.547-1.718.45-1.3 2.045-5.674h1.39l-3.25 8.563h-1.517zm-18.8 19.004h-1.33v-10.25h-3.624v-1.173h8.564v1.173h-3.61v10.25zm12.523-4.298q0 2.093-1.062 3.28-1.046 1.172-2.906 1.172-1.14 0-2.03-.53-.89-.55-1.376-1.55-.484-1.016-.484-2.376 0-2.095 1.044-3.25 1.047-1.173 2.906-1.173 1.8 0 2.847 1.205 1.063 1.187 1.063 3.22zm-6.515 0q0 1.64.656 2.5.656.86 1.92.86 1.28 0 1.94-.845.655-.86.655-2.517 0-1.625-.657-2.47-.657-.858-1.954-.858-1.267 0-1.923.843-.64.824-.64 2.48zm16.18 0q0 2.093-1.063 3.28-1.05 1.172-2.906 1.172-1.14 0-2.033-.53-.89-.55-1.373-1.55-.484-1.016-.484-2.376 0-2.095 1.044-3.25 1.044-1.173 2.903-1.173 1.796 0 2.843 1.205 1.06 1.187 1.06 3.22zm-6.516 0q0 1.64.658 2.5.656.86 1.922.86 1.28 0 1.936-.845.66-.86.66-2.517 0-1.625-.658-2.47-.655-.858-1.952-.858-1.265 0-1.922.843-.64.824-.64 2.48zm10.088 4.296h-1.297V469.2h1.297v12.156zm8.28-2.345q0 1.203-.89 1.86-.89.64-2.5.64-1.703 0-2.656-.547v-1.202q.61.312 1.31.5.72.17 1.376.17 1.016 0 1.563-.31.547-.33.547-1 0-.5-.438-.845-.438-.36-1.688-.843-1.205-.454-1.705-.78-.5-.33-.75-.75-.25-.424-.25-1.018 0-1.047.842-1.64.86-.61 2.343-.61 1.39 0 2.705.563l-.453 1.047q-1.293-.53-2.34-.53-.92 0-1.39.297-.47.28-.47.795 0 .343.17.593.19.235.58.454.39.22 1.5.627 1.517.564 2.048 1.126.546.564.546 1.407zm-32.226 19q0 1.203-.89 1.86-.89.64-2.5.64-1.703 0-2.657-.547v-1.202q.61.312 1.31.5.72.17 1.378.17 1.017 0 1.563-.31.545-.33.545-1 0-.5-.436-.845-.44-.36-1.69-.843-1.2-.454-1.7-.78-.5-.33-.75-.75-.25-.424-.25-1.018 0-1.047.843-1.64.86-.61 2.342-.61 1.39 0 2.702.563l-.454 1.047q-1.294-.53-2.34-.53-.923 0-1.39.297-.47.28-.47.795 0 .343.17.593.188.235.578.454.39.22 1.5.627 1.518.563 2.05 1.126.545.563.545 1.407zm5.524 2.5q-1.86 0-2.874-1.14-1.018-1.157-1.018-3.25 0-2.14 1.03-3.313t2.952-1.173q.61 0 1.22.144.624.125.984.297l-.408 1.11q-.422-.173-.94-.28-.5-.127-.89-.127-2.61 0-2.61 3.327 0 1.58.628 2.425.64.843 1.89.843 1.08 0 2.204-.455v1.14q-.86.454-2.17.454zm8.1-8.875q.58 0 1.033.096l-.187 1.2q-.53-.126-.94-.126-1.03 0-1.78.843-.735.844-.735 2.11v4.593h-1.297v-8.56h1.078l.14 1.58h.063q.484-.83 1.155-1.282.672-.45 1.47-.45zm3.924 8.72h-1.297v-8.56h1.296v8.563zm-1.406-10.89q0-.437.22-.64.22-.22.548-.22.312 0 .53.22.235.203.235.64 0 .438-.234.657-.22.217-.53.217-.33 0-.55-.217-.22-.22-.22-.654zm8.14 11.047q-.826 0-1.53-.313-.686-.312-1.155-.952h-.093q.095.75.095 1.437v3.516h-1.296v-12.4h1.063l.17 1.17h.065q.5-.705 1.156-1.017.67-.312 1.53-.312 1.705 0 2.627 1.174.936 1.156.936 3.25 0 2.11-.952 3.28-.937 1.173-2.61 1.173zm-.185-7.78q-1.312 0-1.905.732-.58.718-.595 2.312v.28q0 1.813.594 2.594.61.763 1.935.763 1.11 0 1.735-.89.64-.906.64-2.485 0-1.593-.64-2.453-.626-.86-1.767-.86zm8.774 6.7q.344 0 .657-.05.33-.044.517-.106v1q-.202.11-.624.17-.406.063-.734.063-2.485 0-2.485-2.624V492.8h-1.22v-.625l1.22-.53.546-1.83h.75v1.985h2.485v1h-2.49v5.047q0 .766.36 1.188.374.406 1.014.406z"/><path d="M226 560.937h260v36.63H226z"/><path stroke="#000" stroke-width="2" stroke-linejoin="round" stroke-linecap="butt" d="M226 560.937h260v36.63H226z"/><path fill="#000" d="M344.125 577.018q0 1.735-1.188 2.672-1.17.922-3.375.922h-1.343v4.5h-1.33V573.69h2.95q4.28 0 4.28 3.328zm-5.906 2.453h1.18q1.763 0 2.544-.56.797-.58.797-1.83 0-1.14-.75-1.68-.734-.56-2.297-.56h-1.485v4.64zm13.36 5.65l-.25-1.22h-.066q-.64.8-1.28 1.096-.64.28-1.595.28-1.265 0-2-.655-.718-.656-.718-1.875 0-2.596 4.155-2.72l1.452-.048v-.53q0-1-.44-1.484-.437-.485-1.39-.485-1.063 0-2.422.658l-.39-.984q.622-.343 1.372-.53.766-.203 1.516-.203 1.53 0 2.265.685.75.673.75 2.173v5.844h-.97zm-2.92-.92q1.2 0 1.89-.656.7-.672.7-1.86v-.78l-1.297.06q-1.547.048-2.234.485-.688.422-.688 1.313 0 .703.42 1.078.437.36 1.203.36zm12.41.922v-5.547q0-1.047-.484-1.562-.47-.515-1.484-.515-1.344 0-1.97.736-.624.72-.624 2.393v4.5h-1.298v-8.563h1.06l.204 1.17h.062q.405-.64 1.124-.984.72-.343 1.592-.343 1.545 0 2.327.75.78.734.78 2.374v5.594h-1.295zm7.586.156q-1.905 0-3-1.156t-1.093-3.22q0-2.06 1.015-3.28 1.015-1.22 2.733-1.22 1.61 0 2.547 1.062.937 1.048.937 2.78v.83h-5.89q.03 1.5.75 2.28.736.783 2.05.783 1.375 0 2.734-.58v1.157q-.686.296-1.31.42-.61.14-1.47.14zm-.36-7.797q-1.03 0-1.64.673-.61.67-.72 1.86h4.47q0-1.22-.546-1.874-.546-.657-1.56-.657zm7.01 7.64h-1.297v-12.16h1.296v12.157z"/><path d="M306.984 453.433h163.024V510H306.984z"/><path stroke="#000" stroke-width="2" stroke-linejoin="round" stroke-linecap="butt" d="M306.984 453.433h163.024V510H306.984z"/><path fill="#000" d="M334.105 482.827v4.75h-1.328v-11.422h3.125q2.11 0 3.11.812 1 .797 1 2.406 0 2.266-2.297 3.063l3.11 5.14h-1.58l-2.765-4.75h-2.375zm0-1.14h1.813q1.406 0 2.062-.564.657-.562.657-1.67 0-1.142-.672-1.642-.656-.5-2.14-.5h-1.72v4.38zm11.985 6.046q-1.906 0-3-1.156-1.094-1.157-1.094-3.22 0-2.062 1.016-3.28 1.015-1.22 2.734-1.22 1.61 0 2.547 1.063.937 1.047.937 2.782v.828h-5.89q.03 1.5.75 2.28.734.782 2.047.782 1.375 0 2.734-.578v1.156q-.68.297-1.31.422-.61.14-1.47.14zm-.36-7.797q-1.03 0-1.64.672-.61.672-.72 1.86h4.47q0-1.22-.547-1.876-.547-.656-1.563-.656zm9.133 7.797q-1.86 0-2.875-1.14-1.015-1.157-1.015-3.25 0-2.14 1.03-3.313 1.032-1.172 2.954-1.172.61 0 1.22.14.624.125.983.297l-.406 1.11q-.422-.172-.938-.282-.5-.125-.89-.125-2.61 0-2.61 3.33 0 1.577.625 2.42.65.844 1.9.844 1.08 0 2.204-.453v1.14q-.86.45-2.172.45zm11.586-4.453q0 2.093-1.07 3.28-1.05 1.173-2.91 1.173-1.14 0-2.03-.53-.89-.548-1.376-1.548-.484-1.016-.484-2.375 0-2.094 1.047-3.25 1.046-1.172 2.905-1.172 1.795 0 2.842 1.203 1.062 1.19 1.062 3.22zm-6.52 0q0 1.64.65 2.5.656.86 1.92.86 1.28 0 1.94-.845.655-.86.655-2.515 0-1.625-.656-2.47-.657-.858-1.954-.858-1.264 0-1.92.843-.64.828-.64 2.485zm12.69-4.422q.577 0 1.03.094l-.187 1.203q-.53-.125-.938-.125-1.03 0-1.78.843-.736.844-.736 2.11v4.594h-1.297v-8.563h1.08l.14 1.578H370q.485-.828 1.157-1.28.67-.454 1.47-.454zm8.452 7.562h-.063q-.907 1.313-2.688 1.313-1.688 0-2.626-1.14-.92-1.157-.92-3.282 0-2.1.936-3.28.938-1.17 2.61-1.17 1.734 0 2.67 1.27h.096l-.05-.623-.03-.593v-3.485h1.295v12.16h-1.063l-.172-1.16zm-2.595.22q1.33 0 1.922-.72.61-.718.61-2.328v-.28q0-1.814-.61-2.595-.61-.78-1.938-.78-1.14 0-1.75.89-.593.89-.593 2.5 0 1.64.592 2.484.61.83 1.765.83zm10.196 1.093q-1.907 0-3-1.156-1.094-1.157-1.094-3.22 0-2.062 1.014-3.28 1.016-1.22 2.735-1.22 1.61 0 2.546 1.063.936 1.047.936 2.782v.828h-5.89q.03 1.5.75 2.28.734.782 2.046.782 1.374 0 2.734-.578v1.156q-.687.297-1.312.422-.61.14-1.47.14zm-.36-7.797q-1.03 0-1.64.672-.61.672-.72 1.86h4.47q0-1.22-.547-1.876-.547-.656-1.563-.656zm9.617-1.078q.58 0 1.033.094l-.19 1.203q-.53-.125-.936-.125-1.03 0-1.78.843-.736.844-.736 2.11v4.594h-1.295v-8.563h1.08l.14 1.578h.063q.488-.828 1.16-1.28.673-.454 1.47-.454zm10.767 8.875q-.828 0-1.53-.313-.69-.312-1.157-.953h-.095q.092.75.092 1.438v3.515h-1.298v-12.406h1.06l.17 1.172h.064q.5-.703 1.156-1.016.67-.312 1.53-.312 1.704 0 2.626 1.172.94 1.156.94 3.25 0 2.11-.954 3.28-.936 1.173-2.61 1.173zm-.187-7.78q-1.314 0-1.908.733-.58.72-.594 2.312v.282q0 1.812.593 2.593.61.766 1.94.766 1.11 0 1.736-.9.64-.907.64-2.485 0-1.594-.64-2.453-.625-.86-1.765-.86zm9.913-1.095q.577 0 1.03.094l-.188 1.203q-.53-.125-.94-.125-1.03 0-1.78.843-.737.844-.737 2.11v4.594h-1.297v-8.563h1.08l.14 1.578h.065q.482-.828 1.154-1.28.67-.454 1.47-.454zm10.014 4.422q0 2.093-1.06 3.28-1.046 1.173-2.906 1.173-1.14 0-2.03-.53-.89-.548-1.374-1.548-.485-1.016-.485-2.375 0-2.094 1.05-3.25 1.05-1.172 2.907-1.172 1.798 0 2.845 1.203 1.064 1.19 1.064 3.22zm-6.513 0q0 1.64.655 2.5.655.86 1.92.86 1.28 0 1.938-.845.653-.86.653-2.515 0-1.625-.656-2.47-.66-.858-1.956-.858-1.267 0-1.923.843-.64.828-.64 2.485zm10.85-.094l-2.97-4.172h1.47l2.266 3.28 2.25-3.28h1.454l-2.97 4.172 3.125 4.39h-1.47l-2.39-3.468-2.42 3.47h-1.47l3.122-4.392zm4.96-4.172h1.39L441 483.89q.626 1.67.766 2.42h.06q.11-.41.424-1.36.328-.97 2.125-5.94h1.39l-3.673 9.75q-.546 1.45-1.28 2.043-.735.61-1.798.61-.594 0-1.173-.126v-1.047q.44.095.97.095 1.33 0 1.907-1.5l.47-1.22-3.453-8.608z"/><path d="M384 198h260v70.016H384z"/><path stroke="#000" stroke-width="2" stroke-linejoin="round" stroke-linecap="butt" d="M384 198h260v70.016H384z"/><path fill="#000" d="M481.73 232.51h.782q1.156 0 1.703-.376.547-.39.547-1.204 0-.812-.563-1.156-.57-.344-1.74-.344h-.74v3.078zm0 1.967v4.39h-2.42v-11.42h3.327q2.328 0 3.437.843 1.125.844 1.125 2.578 0 1-.57 1.797-.55.78-1.565 1.22 2.58 3.858 3.36 4.983h-2.688l-2.72-4.39h-1.297zm11.58-2.812q-.767 0-1.205.484-.42.46-.484 1.35h3.35q-.012-.89-.47-1.36-.432-.484-1.182-.484zm.327 7.36q-2.11 0-3.297-1.157-1.188-1.172-1.188-3.313 0-2.187 1.094-3.39 1.11-1.203 3.047-1.203 1.844 0 2.875 1.062 1.03 1.047 1.03 2.906v1.157h-5.624q.03 1.015.594 1.593.562.563 1.578.563.797 0 1.5-.156.703-.172 1.47-.532v1.844q-.626.31-1.345.46-.7.155-1.73.155zm9.047 0q-4.08 0-4.08-4.485 0-2.22 1.11-3.39 1.11-1.188 3.188-1.188 1.516 0 2.72.593l-.704 1.844q-.563-.22-1.047-.36-.48-.16-.96-.16-1.86 0-1.86 2.64 0 2.56 1.86 2.56.69 0 1.267-.17.594-.19 1.17-.58v2.03q-.576.375-1.17.516-.58.14-1.484.14zm6.586-4.548q0 1.297.42 1.97.423.655 1.392.655.953 0 1.36-.656.42-.656.42-1.97 0-1.296-.42-1.936-.422-.656-1.376-.656-.953 0-1.375.656-.42.64-.42 1.937zm6.03 0q0 2.14-1.124 3.344-1.125 1.21-3.125 1.21-1.26 0-2.23-.544-.95-.562-1.47-1.594-.51-1.03-.51-2.406 0-2.14 1.11-3.33 1.124-1.188 3.156-1.188 1.25 0 2.2.547.97.543 1.487 1.575.516 1.015.516 2.39zm6.845-4.515q.484 0 .812.078l-.187 2.234q-.282-.078-.704-.078-1.14 0-1.78.594-.626.578-.626 1.625v4.453h-2.39v-8.734h1.812l.344 1.468h.125q.41-.734 1.1-1.187.69-.453 1.5-.453zm5.156 9.062q-1.53 0-2.42-1.187-.87-1.203-.87-3.328 0-2.15.89-3.35.91-1.207 2.47-1.207 1.66 0 2.518 1.28h.078q-.17-.968-.17-1.733v-2.797h2.39v12.155h-1.828l-.47-1.14h-.093q-.812 1.296-2.484 1.296zm.85-1.906q.91 0 1.33-.53.44-.533.47-1.798v-.266q0-1.406-.436-2.016-.422-.61-1.406-.61-.796 0-1.234.69-.44.67-.44 1.952 0 1.297.438 1.937.453.64 1.28.64zm10.14-5.453q-.76 0-1.2.484-.42.46-.483 1.35h3.343q-.015-.89-.468-1.36-.44-.484-1.19-.484zm.33 7.36q-2.11 0-3.295-1.157-1.187-1.172-1.187-3.313 0-2.187 1.094-3.39 1.11-1.203 3.047-1.203 1.843 0 2.875 1.062 1.03 1.047 1.03 2.906v1.157h-5.626q.032 1.015.595 1.593.563.563 1.58.563.796 0 1.5-.156.702-.172 1.467-.532v1.844q-.626.31-1.344.46-.703.155-1.735.155zm10.377-9.063q.485 0 .813.078l-.188 2.234q-.28-.078-.703-.078-1.14 0-1.78.594-.628.578-.628 1.625v4.453h-2.39v-8.734h1.81l.345 1.468h.125q.403-.734 1.09-1.187.69-.453 1.5-.453z"/><path d="M522 400h292v209.984H522z"/><path stroke="#000" stroke-width="2" stroke-linejoin="round" stroke-linecap="butt" d="M522 400h292v209.984H522z"/><path fill="#000" d="M624.25 412.938h3.22q2.28 0 3.296.688 1.015.67 1.015 2.14 0 1.016-.57 1.672-.56.656-1.64.86v.078q2.595.437 2.595 2.734 0 1.53-1.03 2.39-1.032.86-2.892.86h-3.983v-11.422zm1.328 4.89h2.188q1.406 0 2.015-.437.63-.45.63-1.5 0-.95-.682-1.37-.69-.432-2.19-.432h-1.95v3.75zm0 1.126v4.265h2.375q1.39 0 2.078-.54.71-.53.71-1.67 0-1.06-.72-1.56-.7-.5-2.17-.5h-2.264zm12.742-3.313q.578 0 1.032.1l-.188 1.207q-.53-.125-.937-.125-1.032 0-1.782.844-.734.844-.734 2.11v4.593h-1.29v-8.56h1.08l.14 1.58h.064q.485-.83 1.157-1.284.67-.454 1.468-.454zm10.016 4.43q0 2.096-1.063 3.28-1.046 1.175-2.906 1.175-1.14 0-2.03-.53-.892-.55-1.376-1.55-.48-1.015-.48-2.374 0-2.094 1.05-3.25 1.05-1.172 2.91-1.172 1.797 0 2.843 1.204 1.063 1.19 1.063 3.22zm-6.516 0q0 1.64.657 2.5.656.86 1.92.86 1.283 0 1.94-.842.655-.86.655-2.516 0-1.625-.656-2.47-.656-.86-1.953-.86-1.266 0-1.922.845-.64.826-.64 2.482zm15.79 4.3l-1.58-5.03q-.14-.454-.546-2.095h-.062q-.313 1.375-.547 2.11l-1.625 5.015h-1.5l-2.328-8.563h1.36q.827 3.22 1.25 4.908.437 1.688.5 2.28h.062q.093-.45.28-1.154.188-.703.33-1.125l1.577-4.91h1.41l1.53 4.908q.44 1.344.6 2.266h.06q.03-.284.16-.86.14-.596 1.64-6.315h1.344l-2.374 8.564h-1.53zm10.976-2.344q0 1.203-.89 1.86-.89.64-2.5.64-1.704 0-2.657-.547v-1.205q.6.313 1.31.5.72.17 1.37.17 1.013 0 1.56-.31.546-.33.546-1 0-.5-.438-.844-.438-.36-1.688-.844-1.203-.452-1.703-.78-.5-.33-.75-.75-.25-.422-.25-1.016 0-1.047.843-1.64.86-.61 2.343-.61 1.39 0 2.703.563l-.454 1.047q-1.294-.53-2.34-.53-.92 0-1.39.297-.47.28-.47.8 0 .343.173.593.19.232.58.45.39.22 1.5.626 1.516.56 2.05 1.124.543.562.543 1.406zm5.726 2.5q-1.906 0-3-1.156-1.093-1.156-1.093-3.22 0-2.06 1.01-3.28 1.01-1.22 2.73-1.22 1.61 0 2.546 1.064.937 1.047.937 2.78v.83h-5.89q.03 1.5.75 2.28.734.78 2.046.78 1.374 0 2.734-.58v1.16q-.686.297-1.31.42-.61.14-1.468.14zm-.36-7.797q-1.03 0-1.64.67-.61.672-.718 1.86h4.468q0-1.22-.546-1.875-.547-.657-1.563-.657zm9.618-1.08q.578 0 1.032.094l-.188 1.204q-.53-.124-.937-.124-1.032 0-1.782.843-.734.842-.734 2.11v4.59h-1.29v-8.56h1.08l.14 1.58h.064q.485-.83 1.157-1.284.67-.454 1.468-.454zm9.547 7.797q.344 0 .656-.046.33-.045.516-.107v1q-.21.11-.63.173-.41.06-.74.06-2.485 0-2.485-2.624v-5.1h-1.218v-.624l1.217-.53.55-1.83h.75v1.985h2.484v1h-2.485v5.04q0 .768.36 1.19.374.407 1.014.407zm8.15.923l-.25-1.22h-.064q-.64.797-1.28 1.094-.642.28-1.595.28-1.265 0-2-.654-.72-.657-.72-1.876 0-2.593 4.158-2.72l1.453-.045v-.53q0-1-.44-1.488-.44-.485-1.39-.485-1.07 0-2.42.654l-.4-.984q.624-.345 1.374-.53.766-.205 1.516-.205 1.53 0 2.265.69.75.67.75 2.17v5.845h-.966zm-2.923-.923q1.203 0 1.89-.655.703-.672.703-1.86v-.78l-1.296.06q-1.54.05-2.23.486-.682.423-.682 1.314 0 .703.42 1.08.44.36 1.205.36zm10.54-7.78q1.686 0 2.624 1.156.937 1.14.937 3.25 0 2.11-.953 3.28-.937 1.174-2.61 1.174-.827 0-1.53-.313-.688-.312-1.157-.952h-.093l-.266 1.11h-.938v-12.16h1.297v2.952q0 .986-.062 1.78h.062q.907-1.28 2.688-1.28zm-.19 1.078q-1.327 0-1.92.766-.58.768-.58 2.565 0 1.813.595 2.594.6.766 1.93.766 1.2 0 1.78-.86.593-.875.593-2.516 0-1.67-.594-2.484-.578-.83-1.813-.83z"/><path d="M538.984 439.984H717v56.567H538.984z"/><path stroke="#000" stroke-width="2" stroke-linejoin="round" stroke-linecap="butt" d="M538.984 439.984H717v56.567H538.984z"/><path fill="#000" d="M573.78 474.128h-6.358v-11.422h6.36v1.172h-5.032v3.687h4.734v1.172h-4.734v4.203h5.03v1.188zm4.212 0l-3.25-8.563h1.39l1.845 5.078q.625 1.782.734 2.313h.07q.096-.422.55-1.72.453-1.296 2.047-5.67h1.39l-3.25 8.562H578zm9.766.156q-1.906 0-3-1.156-1.094-1.157-1.094-3.22 0-2.062 1.016-3.28 1.015-1.22 2.734-1.22 1.61 0 2.547 1.063.94 1.05.94 2.79v.83h-5.89q.03 1.5.75 2.28.74.78 2.05.78 1.38 0 2.738-.576v1.156q-.687.297-1.312.422-.61.14-1.47.14zm-.36-7.797q-1.03 0-1.64.672-.61.67-.72 1.85h4.47q0-1.22-.547-1.876-.54-.656-1.56-.656zm11.57 7.64v-5.546q0-1.04-.484-1.56-.468-.51-1.484-.51-1.344 0-1.97.736-.624.72-.624 2.39v4.5h-1.297v-8.562h1.06l.2 1.173h.06q.405-.64 1.123-.986.72-.344 1.594-.344 1.547 0 2.33.75.78.734.78 2.375v5.595h-1.297zm6.727-.92q.344 0 .657-.048.328-.05.515-.11v1q-.203.11-.625.17-.406.06-.734.06-2.485 0-2.485-2.63v-5.095h-1.218v-.625l1.218-.53.547-1.83h.75v1.986h2.485v1h-2.485v5.05q0 .764.36 1.186.375.406 1.015.406zm12.867-.236h-.062q-.906 1.32-2.688 1.32-1.687 0-2.625-1.14-.92-1.154-.92-3.28 0-2.11.936-3.28.938-1.172 2.61-1.172 1.734 0 2.67 1.266h.095l-.047-.625-.03-.594v-3.483h1.3v12.16h-1.06l-.17-1.16zm-2.593.22q1.32 0 1.92-.72.61-.71.61-2.32v-.28q0-1.81-.61-2.593-.61-.78-1.94-.78-1.14 0-1.75.89-.6.89-.6 2.5 0 1.64.593 2.484.61.828 1.766.828zm7.86.94h-1.3v-8.56h1.296v8.567zm-1.41-10.89q0-.44.218-.64.22-.22.547-.22.313 0 .532.22.233.208.233.64 0 .44-.233.66-.22.22-.53.22-.327 0-.546-.22-.217-.22-.217-.655zm9.687 8.55q0 1.206-.89 1.86-.89.64-2.5.64-1.704 0-2.657-.544v-1.203q.61.31 1.313.5.72.17 1.374.17 1.015 0 1.562-.312.544-.327.544-1 0-.5-.44-.842-.44-.36-1.69-.843-1.2-.453-1.7-.78-.5-.33-.75-.75-.25-.423-.25-1.02 0-1.045.842-1.64.86-.61 2.345-.61 1.39 0 2.703.564l-.454 1.05q-1.298-.53-2.345-.53-.92 0-1.39.294-.47.28-.47.797 0 .346.172.596.187.233.577.45.39.22 1.5.627 1.516.56 2.047 1.124.55.564.55 1.408zm6.086 2.5q-.83 0-1.53-.31-.69-.31-1.158-.952h-.096q.093.75.093 1.44v3.514h-1.298v-12.41h1.06l.173 1.17h.064q.5-.7 1.155-1.014.67-.31 1.53-.31 1.703 0 2.625 1.17.94 1.157.94 3.25 0 2.11-.955 3.282-.936 1.172-2.61 1.172zm-.188-7.78q-1.315 0-1.91.736-.58.72-.593 2.313v.28q0 1.813.593 2.595.61.765 1.938.765 1.11 0 1.735-.89.642-.907.642-2.485 0-1.595-.64-2.454-.626-.86-1.766-.86zm11.27 7.627l-.25-1.22h-.062q-.64.798-1.283 1.095-.64.28-1.59.28-1.266 0-2-.655-.72-.66-.72-1.877 0-2.594 4.157-2.72l1.452-.046v-.53q0-1-.44-1.485-.44-.48-1.39-.48-1.065 0-2.425.653l-.39-.984q.624-.346 1.374-.53.764-.206 1.514-.206 1.53 0 2.264.687.75.673.75 2.173v5.843h-.97zm-2.922-.922q1.202 0 1.89-.655.703-.67.703-1.86v-.78l-1.297.06q-1.55.05-2.236.487-.69.422-.69 1.312 0 .7.423 1.075.438.36 1.203.36zm9.32 0q.343 0 .656-.046.326-.048.513-.11v1q-.203.11-.625.17-.406.064-.734.064-2.483 0-2.483-2.625v-5.098h-1.22v-.624l1.22-.53.547-1.83h.75v1.985h2.483v1h-2.48v5.048q0 .766.36 1.19.373.404 1.013.404zm6.304 1.08q-1.86 0-2.875-1.14-1.016-1.158-1.016-3.25 0-2.14 1.03-3.314 1.032-1.17 2.954-1.17.61 0 1.22.14.625.125.984.296l-.406 1.11q-.42-.172-.937-.28-.5-.126-.89-.126-2.61 0-2.61 3.326 0 1.58.626 2.423.64.84 1.89.84 1.08 0 2.204-.453v1.14q-.86.452-2.17.452zm10.055-.157v-5.55q0-1.045-.486-1.56-.468-.516-1.484-.516-1.343 0-1.97.734-.623.734-.623 2.406v4.483h-1.3v-12.16h1.296v3.674q0 .673-.062 1.11h.078q.39-.624 1.095-.97.704-.357 1.61-.357 1.578 0 2.36.75.78.736.78 2.36v5.595h-1.297zm7.585.154q-1.906 0-3-1.156t-1.094-3.22q0-2.062 1.016-3.28 1.014-1.22 2.733-1.22 1.61 0 2.547 1.063.94 1.047.94 2.782v.826h-5.89q.03 1.5.75 2.284.733.78 2.046.78 1.376 0 2.735-.576v1.157q-.685.3-1.31.426-.61.14-1.47.14zm-.36-7.797q-1.03 0-1.64.67-.61.67-.72 1.857h4.47q0-1.22-.547-1.877-.546-.655-1.562-.655zm9.62-1.08q.58 0 1.03.09l-.188 1.205q-.53-.125-.938-.125-1.03 0-1.78.845-.735.843-.735 2.11v4.593h-1.297v-8.564h1.08l.14 1.577h.065q.486-.825 1.158-1.28.672-.45 1.47-.45z"/><path d="M454 454v-92.504h.063v-92.504"/><path stroke="#000" stroke-width="2" stroke-linejoin="round" stroke-linecap="butt" stroke-dasharray="8.0,6.0" d="M454 454v-92.504h.063v-80.504"/><path fill="#000" stroke="#000" stroke-width="2" stroke-linecap="butt" d="M457.366 280.992l-3.303-9.076-3.303 9.076z" fill-rule="evenodd"/><path d="M581 269v86h.063v86"/><path stroke="#000" stroke-width="2" stroke-linejoin="round" stroke-linecap="butt" stroke-dasharray="8.0,6.0" d="M581 281v74h.063v86"/><path fill="#000" stroke="#000" stroke-width="2" stroke-linecap="butt" d="M584.303 281L581 271.924 577.697 281z" fill-rule="evenodd"/><path d="M681.992 159.283H715v.063h33.008"/><path stroke="#000" stroke-width="2" stroke-linejoin="round" stroke-linecap="butt" stroke-dasharray="8.0,6.0" d="M681.992 159.283H715v.063h21.008"/><path fill="#000" stroke="#000" stroke-width="2" stroke-linecap="butt" d="M736.008 162.65l9.076-3.304-9.076-3.303z" fill-rule="evenodd"/><path d="M748.008 141h178.016v36.63H748.008z"/><path fill="#000" d="M761.805 165.516q-1.86 0-2.875-1.14-1.016-1.157-1.016-3.25 0-2.14 1.03-3.313 1.033-1.172 2.955-1.172.6 0 1.21.15.623.126.983.298l-.407 1.11q-.42-.173-.937-.28-.5-.127-.89-.127-2.61 0-2.61 3.328 0 1.58.625 2.423.64.844 1.89.844 1.08 0 2.203-.452v1.14q-.86.456-2.17.456zm10.054-.156v-5.547q0-1.047-.49-1.562-.47-.51-1.488-.51-1.344 0-1.97.738t-.624 2.407v4.484H766v-12.16h1.297v3.67q0 .673-.063 1.11h.08q.39-.625 1.092-.97.703-.36 1.61-.36 1.578 0 2.36.75.78.736.78 2.36v5.595h-1.297zm7.86-8.72q.58 0 1.03.095l-.19 1.203q-.53-.125-.937-.125-1.03 0-1.78.844-.737.844-.737 2.11v4.593h-1.297v-8.563h1.077l.14 1.58h.066q.485-.83 1.157-1.283.674-.453 1.47-.453zm10.013 4.423q0 2.094-1.06 3.28-1.05 1.173-2.908 1.173-1.14 0-2.033-.53-.89-.548-1.373-1.548-.484-1.015-.484-2.375 0-2.094 1.048-3.25 1.046-1.172 2.905-1.172 1.797 0 2.844 1.21 1.06 1.19 1.06 3.22zm-6.515 0q0 1.64.656 2.5.656.86 1.922.86 1.28 0 1.935-.844.66-.86.66-2.52 0-1.63-.66-2.47-.655-.86-1.952-.86-1.266 0-1.923.84-.64.827-.64 2.483zm19.71 4.297v-5.578q0-1.016-.437-1.53-.44-.517-1.36-.517-1.22 0-1.797.703-.578.688-.578 2.14v4.782h-1.298v-5.578q0-1.016-.44-1.53-.437-.517-1.36-.517-1.22 0-1.797.734-.563.73-.563 2.39v4.5h-1.294v-8.57h1.063l.202 1.17h.062q.375-.626 1.03-.97.673-.36 1.5-.36 2.017 0 2.626 1.454h.063q.39-.67 1.11-1.06.732-.39 1.654-.39 1.452 0 2.17.75.734.732.734 2.372v5.593h-1.295zm7.587.156q-1.908 0-3-1.156-1.095-1.156-1.095-3.22 0-2.06 1.013-3.28 1.016-1.22 2.735-1.22 1.61 0 2.548 1.064.937 1.047.937 2.78v.83h-5.89q.03 1.5.75 2.28.734.782 2.046.782 1.375 0 2.735-.578v1.156q-.687.297-1.312.422-.61.14-1.467.14zm-.36-7.797q-1.03 0-1.64.67-.61.67-.72 1.86h4.47q0-1.22-.548-1.88t-1.564-.66zm5.523 6.81q0-.53.236-.8.25-.27.69-.27.452 0 .702.265.265.266.265.797 0 .5-.264.78-.25.28-.702.28-.39 0-.657-.25-.265-.25-.265-.81zm8.35-7.89q.58 0 1.034.09l-.19 1.2q-.53-.126-.937-.126-1.03 0-1.78.844-.735.844-.735 2.11v4.593h-1.297v-8.563h1.078l.144 1.58h.062q.484-.83 1.155-1.283.673-.45 1.47-.45zm3.847.15v5.545q0 1.047.47 1.563.483.516 1.5.516 1.342 0 1.967-.735.623-.734.623-2.39v-4.5h1.298v8.562h-1.077l-.186-1.157h-.062q-.404.64-1.11.987-.7.328-1.61.328-1.56 0-2.34-.733-.78-.75-.78-2.39V156.8h1.313zm14.46 8.56v-5.547q0-1.048-.484-1.563-.47-.514-1.484-.514-1.344 0-1.97.733-.624.716-.624 2.39v4.5h-1.298v-8.565h1.062l.203 1.17h.063q.406-.64 1.125-.984.717-.344 1.592-.344 1.55 0 2.33.75.78.736.78 2.376v5.595h-1.295zm6.727-.922q.342 0 .655-.047.326-.045.513-.107v1q-.202.11-.624.17-.407.063-.735.063-2.484 0-2.484-2.626v-5.09h-1.22v-.626l1.22-.533.547-1.826h.75v1.987h2.486v1h-2.486v5.048q0 .766.36 1.188.377.407 1.017.407zm4.18.922h-1.3v-8.564h1.298v8.562zm-1.408-10.89q0-.44.22-.64.216-.22.544-.22.312 0 .53.22.235.2.235.64 0 .436-.235.655-.22.22-.53.22-.33 0-.547-.22-.22-.22-.22-.657zm15.077 10.89v-5.58q0-1.015-.436-1.53-.436-.516-1.36-.516-1.217 0-1.795.703-.577.69-.577 2.14v4.782h-1.3v-5.58q0-1.016-.436-1.53-.436-.517-1.36-.517-1.216 0-1.795.733-.562.733-.562 2.39v4.5H856v-8.564h1.063l.203 1.174h.062q.375-.623 1.03-.97.673-.36 1.5-.36 2.017 0 2.626 1.457h.063q.39-.67 1.11-1.06.734-.39 1.656-.39 1.453 0 2.17.75.736.733.736 2.373v5.595h-1.3zm7.588.155q-1.906 0-3-1.156t-1.094-3.22q0-2.06 1.017-3.28 1.014-1.22 2.733-1.22 1.61 0 2.545 1.063.94 1.046.94 2.78v.83h-5.892q.03 1.5.75 2.28.734.78 2.047.78 1.374 0 2.733-.577v1.158q-.69.296-1.314.42-.61.14-1.47.14zm-.36-7.797q-1.03 0-1.64.67-.61.675-.72 1.86h4.47q0-1.216-.547-1.872-.545-.657-1.56-.657zm13.853 7.8q-.827 0-1.53-.31-.69-.312-1.156-.952h-.093q.09.75.09 1.436v3.516h-1.295V156.79h1.064l.174 1.17h.062q.5-.7 1.156-1.013.67-.316 1.53-.316 1.704 0 2.626 1.175.94 1.156.94 3.25 0 2.11-.956 3.28-.937 1.173-2.61 1.173zm-.186-7.78q-1.312 0-1.906.735-.577.718-.592 2.312v.28q0 1.812.595 2.593.61.766 1.94.766 1.11 0 1.737-.89.64-.906.64-2.484 0-1.594-.64-2.454-.625-.86-1.765-.86zm13.4 3.33q0 2.095-1.06 3.28-1.047 1.174-2.907 1.174-1.14 0-2.03-.53-.895-.548-1.38-1.548-.483-1.015-.483-2.375 0-2.09 1.046-3.25 1.046-1.17 2.906-1.17 1.796 0 2.843 1.204 1.06 1.188 1.06 3.22zm-6.514 0q0 1.64.657 2.5.653.86 1.92.86 1.28 0 1.936-.843.656-.86.656-2.517 0-1.62-.66-2.47-.655-.855-1.95-.855-1.266 0-1.92.844-.64.823-.64 2.48zm12.696-4.42q.58 0 1.03.094l-.187 1.203q-.53-.125-.935-.125-1.03 0-1.78.845-.74.844-.74 2.11v4.593h-1.295v-8.564h1.08l.14 1.58h.063q.482-.83 1.154-1.283.673-.45 1.47-.45zm5.39 7.797q.344 0 .657-.047.33-.043.516-.105v1q-.2.11-.623.172-.403.062-.73.062-2.486 0-2.486-2.63v-5.09h-1.22v-.625l1.22-.532.55-1.827h.75v1.985h2.483v1h-2.483v5.05q0 .77.36 1.19.376.408 1.016.408z"/><path d="M598 341.9c0-5.207 4.22-9.428 9.428-9.428h175.13c2.5 0 4.898.994 6.666 2.762 1.768 1.768 2.76 4.166 2.76 6.666v37.712c0 5.206-4.22 9.427-9.427 9.427H607.43c-5.207 0-9.428-4.23-9.428-9.43l-17-18.85 17 4.7z"/><path stroke="#000" stroke-width="2" stroke-linejoin="round" stroke-linecap="butt" d="M598 341.9c0-5.207 4.22-9.428 9.428-9.428h175.13c2.5 0 4.898.994 6.666 2.762 1.768 1.768 2.76 4.166 2.76 6.666v37.712c0 5.206-4.22 9.427-9.427 9.427H607.43c-5.207 0-9.428-4.23-9.428-9.43l-17-18.85 17 4.7z"/><path fill="#000" d="M629.39 357.116v-11.422h1.33v11.422h-1.33zm10.118 0v-5.547q0-1.05-.485-1.57-.468-.518-1.484-.518-1.35 0-1.97.734-.63.72-.63 2.39v4.5h-1.3v-8.56h1.062l.203 1.17h.062q.406-.64 1.124-.984.72-.342 1.597-.342 1.548 0 2.33.75.782.736.782 2.376v5.594H639.5zm6.726-.922q.344 0 .657-.047.33-.047.52-.11v1q-.2.11-.62.173-.405.062-.733.062-2.485 0-2.485-2.625v-5.094h-1.22v-.625l1.22-.53.546-1.83h.75v1.985h2.486v1h-2.483v5.047q0 .766.36 1.188.375.406 1.015.406zm6.508 1.078q-1.906 0-3-1.156t-1.094-3.22q0-2.06 1.016-3.28 1.016-1.22 2.734-1.22 1.61 0 2.547 1.064.938 1.047.938 2.78v.83h-5.89q.03 1.5.75 2.28.733.782 2.046.782 1.37 0 2.73-.58v1.158q-.69.297-1.31.422-.61.14-1.47.14zm-.36-7.797q-1.03 0-1.64.672-.61.672-.72 1.86h4.47q0-1.22-.547-1.875-.547-.657-1.562-.657zm9.618-1.078q.578 0 1.03.094l-.186 1.21q-.532-.122-.938-.122-1.03 0-1.78.844-.735.844-.735 2.11v4.593h-1.29v-8.563h1.08l.14 1.58h.065q.484-.83 1.156-1.285.673-.452 1.47-.452zm7.89 8.72l-.25-1.22h-.062q-.64.797-1.28 1.094-.642.29-1.595.29-1.266 0-2-.655-.72-.656-.72-1.875 0-2.594 4.158-2.72l1.46-.047v-.53q0-1-.44-1.487-.433-.485-1.39-.485-1.06 0-2.42.658l-.39-.985q.626-.344 1.376-.53.767-.204 1.517-.204 1.53 0 2.265.686.75.673.75 2.173v5.843h-.97zm-2.92-.923q1.202 0 1.89-.656.702-.672.702-1.86v-.78l-1.296.062q-1.547.047-2.235.484-.68.422-.68 1.313 0 .703.42 1.078.44.36 1.207.36zm9.975 1.078q-1.86 0-2.875-1.14-1.015-1.157-1.015-3.25 0-2.14 1.03-3.313 1.032-1.18 2.954-1.18.6 0 1.21.14.624.124.983.3l-.406 1.11q-.42-.176-.938-.28-.5-.13-.89-.13-2.61 0-2.61 3.33 0 1.58.624 2.422.64.844 1.89.844 1.08 0 2.204-.455v1.14q-.86.455-2.17.455zm6.96-1.078q.345 0 .657-.047.33-.047.516-.11v1q-.203.11-.625.173-.406.062-.734.062-2.49 0-2.49-2.625v-5.094h-1.22v-.625l1.22-.53.543-1.83h.75v1.985h2.485v1h-2.485v5.047q0 .766.36 1.188.377.406 1.017.406zm4.18.922h-1.296v-8.563h1.29v8.563zm-1.405-10.89q0-.438.218-.64.22-.22.547-.22.313 0 .53.22.236.202.236.64 0 .437-.23.656-.22.218-.53.218-.33 0-.55-.218-.22-.22-.22-.657zm11.546 6.593q0 2.09-1.062 3.28-1.047 1.17-2.906 1.17-1.14 0-2.032-.53-.89-.55-1.375-1.55-.48-1.02-.48-2.38 0-2.095 1.05-3.25 1.05-1.173 2.91-1.173 1.797 0 2.844 1.203 1.06 1.19 1.06 3.22zm-6.515 0q0 1.64.66 2.5.66.85 1.92.85 1.28 0 1.94-.844.66-.86.66-2.516 0-1.625-.656-2.47-.656-.86-1.953-.86-1.265 0-1.922.846-.64.83-.64 2.484zm14.65 4.29v-5.55q0-1.048-.48-1.563-.47-.516-1.48-.516-1.343 0-1.97.735-.624.72-.624 2.39v4.5h-1.3v-8.56h1.063l.203 1.17h.06q.408-.64 1.127-.985.72-.342 1.593-.342 1.546 0 2.327.75.78.735.78 2.375v5.592h-1.296zm11.74.153q-1.9 0-3-1.156-1.09-1.156-1.09-3.22 0-2.06 1.02-3.28 1.018-1.22 2.737-1.22 1.61 0 2.547 1.064.937 1.046.937 2.78v.83h-5.89q.03 1.5.75 2.28.734.78 2.046.78 1.373 0 2.733-.58v1.16q-.69.296-1.314.42-.61.14-1.47.14zm-.35-7.797q-1.03 0-1.64.672-.61.67-.72 1.86h4.47q0-1.22-.546-1.876t-1.563-.655zm7.587 7.64l-3.25-8.56h1.39l1.844 5.08q.625 1.78.735 2.31h.06q.095-.42.548-1.72.454-1.296 2.048-5.67h1.39l-3.25 8.563h-1.514zm9.766.157q-1.907 0-3-1.154-1.094-1.156-1.094-3.22 0-2.06 1.017-3.28 1.015-1.22 2.734-1.22 1.61 0 2.55 1.064.936 1.046.936 2.78v.83h-5.89q.03 1.5.75 2.28.734.78 2.047.78 1.374 0 2.733-.58v1.16q-.69.296-1.313.42-.61.14-1.47.14zm-.36-7.795q-1.03 0-1.64.67-.61.673-.72 1.86h4.47q0-1.22-.547-1.874-.547-.657-1.563-.657zm11.57 7.64v-5.547q0-1.05-.484-1.564-.47-.516-1.483-.516-1.344 0-1.97.733-.624.72-.624 2.39v4.5h-1.3v-8.564h1.064l.202 1.173h.062q.406-.64 1.124-.985.72-.344 1.594-.344 1.546 0 2.327.75.78.736.78 2.376v5.595h-1.295zm6.727-.92q.344 0 .656-.05.33-.046.514-.11v1q-.203.11-.625.174-.407.06-.735.06-2.485 0-2.485-2.624v-5.093h-1.22v-.626l1.22-.53.546-1.83h.75v1.986h2.486v1h-2.482v5.046q0 .763.36 1.185.377.407 1.017.407zm8.414-1.424q0 1.203-.89 1.86-.89.64-2.5.64-1.702 0-2.655-.547v-1.204q.61.316 1.312.5.72.175 1.376.175 1.012 0 1.56-.31.546-.33.546-1 0-.5-.436-.844-.437-.36-1.687-.843-1.203-.452-1.703-.78-.5-.33-.75-.75-.25-.422-.25-1.016 0-1.046.843-1.64.86-.61 2.345-.61 1.39 0 2.7.564l-.453 1.047q-1.3-.533-2.346-.533-.92 0-1.39.297-.47.28-.47.8 0 .342.172.592.186.235.576.454.392.22 1.5.62 1.517.562 2.048 1.125.548.56.548 1.407zM626.3 371.726q0-2.063.61-3.86.61-1.813 1.75-3.17h1.266q-1.125 1.5-1.703 3.31-.563 1.797-.563 3.704 0 1.88.578 3.677.578 1.796 1.672 3.265h-1.25q-1.156-1.33-1.766-3.094-.593-1.78-.593-3.828zm16.39 4.39v-5.578q0-1.02-.436-1.53-.438-.52-1.36-.52-1.218 0-1.796.703-.58.69-.58 2.14v4.785h-1.295v-5.58q0-1.016-.438-1.53-.437-.517-1.36-.517-1.218 0-1.796.735-.57.736-.57 2.39v4.5h-1.3v-8.56h1.062l.202 1.172h.062q.374-.625 1.03-.97.672-.358 1.5-.358 2.015 0 2.625 1.452h.063q.39-.674 1.11-1.064.734-.39 1.656-.39 1.452 0 2.17.75.735.733.735 2.374v5.594h-1.297zm11.353-4.297q0 2.09-1.063 3.28-1.046 1.17-2.906 1.17-1.14 0-2.03-.53-.892-.55-1.376-1.55-.484-1.016-.484-2.375 0-2.095 1.046-3.25 1.047-1.173 2.907-1.173 1.797 0 2.843 1.203 1.063 1.188 1.063 3.22zm-6.516 0q0 1.64.657 2.5.656.854 1.92.854 1.283 0 1.94-.843.655-.86.655-2.515 0-1.626-.66-2.47-.66-.86-1.96-.86-1.266 0-1.922.845-.64.83-.64 2.485zm10.008-4.27v5.546q0 1.04.47 1.56.483.512 1.5.512 1.343 0 1.968-.735t.625-2.39v-4.5h1.296v8.562h-1.078l-.187-1.156h-.07q-.41.64-1.11.983-.7.33-1.61.33-1.564 0-2.345-.735-.78-.75-.78-2.39v-5.596h1.31zm14.133 6.22q0 1.2-.89 1.86-.89.64-2.5.64-1.704 0-2.657-.548v-1.203q.61.313 1.32.5.72.172 1.378.172 1.015 0 1.56-.313.55-.32.55-.993 0-.5-.44-.844-.436-.36-1.686-.844-1.203-.455-1.703-.78-.5-.33-.75-.75-.25-.425-.25-1.02 0-1.046.844-1.64.86-.61 2.344-.61 1.39 0 2.704.564l-.452 1.05q-1.297-.533-2.343-.533-.92 0-1.39.297-.47.28-.47.797 0 .344.17.594.19.23.58.45.39.22 1.5.624 1.517.564 2.048 1.127.55.56.55 1.405zm5.726 2.5q-1.906 0-3-1.158-1.093-1.156-1.093-3.22 0-2.06 1.02-3.28 1.02-1.22 2.74-1.22 1.61 0 2.548 1.064.938 1.04.938 2.78v.83h-5.89q.03 1.5.75 2.28.735.78 2.047.78 1.376 0 2.736-.58v1.154q-.69.297-1.315.42-.61.14-1.47.14zm-.36-7.8q-1.03 0-1.64.673-.61.672-.718 1.86h4.468q0-1.22-.546-1.875-.547-.65-1.563-.65zm7.07 5.78l.126.174q-.203.782-.593 1.813-.375 1.047-.797 1.937h-.97q.204-.812.454-2.015.266-1.19.36-1.907h1.42zm8-2.53q.345-.47 1.033-1.25l2.765-2.92h1.532l-3.47 3.64 3.72 4.923h-1.58l-3.014-4.047-.985.843v3.21h-1.28v-12.16h1.28v6.436q0 .438-.062 1.328h.062zm10.744 4.548q-1.907 0-3-1.15-1.094-1.157-1.094-3.22 0-2.06 1.015-3.28 1.01-1.22 2.73-1.22 1.61 0 2.542 1.063.937 1.048.937 2.78v.83h-5.89q.03 1.5.75 2.28.734.78 2.046.78 1.375 0 2.735-.576v1.157q-.69.296-1.314.42-.61.14-1.466.14zm-.36-7.79q-1.03 0-1.64.67-.61.67-.72 1.86h4.47q0-1.22-.547-1.876-.54-.656-1.56-.656zm4.352-.924h1.39l1.875 4.875q.625 1.67.766 2.42h.07q.11-.405.42-1.36.33-.97 2.13-5.936h1.39l-3.67 9.75q-.548 1.454-1.28 2.047-.736.61-1.8.61-.593 0-1.17-.125v-1.047q.437.093.968.093 1.328 0 1.906-1.5l.47-1.22-3.454-8.61zm13.406-.14q1.688 0 2.625 1.156.94 1.14.94 3.25 0 2.108-.95 3.28-.933 1.17-2.61 1.17-.823 0-1.53-.31-.69-.313-1.152-.953h-.094l-.266 1.11h-.94v-12.16h1.298v2.952q0 .983-.062 1.78h.063q.905-1.28 2.686-1.28zm-.187 1.078q-1.33 0-1.93.768-.58.766-.58 2.563 0 1.81.592 2.592.61.765 1.937.765 1.203 0 1.78-.86.595-.875.595-2.516 0-1.67-.595-2.484-.576-.83-1.81-.83zm13.39 3.33q0 2.094-1.065 3.28-1.046 1.173-2.906 1.173-1.14 0-2.03-.53-.89-.548-1.376-1.548-.485-1.018-.485-2.377 0-2.096 1.046-3.25 1.047-1.174 2.907-1.174 1.797 0 2.843 1.2 1.064 1.188 1.064 3.22zm-6.518 0q0 1.64.657 2.5.656.86 1.92.86 1.283 0 1.94-.844.655-.86.655-2.515 0-1.627-.657-2.47-.657-.86-1.954-.86-1.265 0-1.92.844-.64.826-.64 2.482zm14.055 4.297l-.25-1.22h-.06q-.64.8-1.28 1.095-.64.283-1.595.283-1.268 0-2-.657-.72-.654-.72-1.873 0-2.594 4.155-2.72l1.455-.046v-.53q0-1-.438-1.484-.438-.486-1.39-.486-1.063 0-2.423.654l-.39-.985q.625-.343 1.375-.53.765-.203 1.515-.203 1.53 0 2.266.688.75.67.75 2.17v5.846h-.97zm-2.92-.92q1.202 0 1.89-.658.703-.67.703-1.86v-.78l-1.296.06q-1.545.05-2.232.487-.688.42-.688 1.313 0 .702.42 1.077.44.36 1.204.36zm10.46-7.8q.58 0 1.03.096l-.186 1.205q-.532-.126-.94-.126-1.03 0-1.78.843-.734.842-.734 2.11v4.59h-1.296v-8.564h1.078l.14 1.58h.065q.484-.83 1.156-1.283.67-.452 1.47-.452zm8.453 7.565h-.06q-.907 1.313-2.688 1.313-1.687 0-2.625-1.14-.924-1.158-.924-3.283 0-2.11.94-3.28.937-1.172 2.61-1.172 1.734 0 2.67 1.266H757l-.046-.626-.03-.595v-3.484h1.296v12.157h-1.062l-.17-1.154zm-2.593.22q1.33 0 1.923-.72.61-.72.61-2.327v-.283q0-1.81-.61-2.593-.61-.78-1.937-.78-1.143 0-1.75.89-.596.89-.596 2.5 0 1.64.597 2.486.608.83 1.764.83zm9.29-3.454q0 2.06-.61 3.843-.593 1.764-1.733 3.076h-1.25q1.077-1.47 1.655-3.265.576-1.795.576-3.67 0-1.907-.56-3.703-.56-1.814-1.686-3.314h1.268q1.14 1.36 1.734 3.17.61 1.81.61 3.86z"/><path d="M430 452v-91.496h.063v-91.496"/><path stroke="#000" stroke-width="2" stroke-linejoin="round" stroke-linecap="butt" stroke-dasharray="8.0,6.0" d="M430 440v-79.496h.063v-91.496"/><path fill="#000" stroke="#000" stroke-width="2" stroke-linecap="butt" d="M426.697 440l3.303 9.076 3.303-9.076z" fill-rule="evenodd"/><path fill="#fff" d="M210.008 282.333c0-5.207 4.22-9.427 9.428-9.427h190.12c2.502 0 4.9.993 6.668 2.76 1.768 1.77 2.76 4.167 2.76 6.667L453 299l-34.016-2.525v23.57c0 5.206-4.22 9.427-9.428 9.427h-190.12c-5.206 0-9.427-4.22-9.427-9.427v-37.712z"/><path stroke="#000" stroke-width="2" stroke-linejoin="round" stroke-linecap="butt" d="M210.008 282.333c0-5.207 4.22-9.427 9.428-9.427h190.12c2.502 0 4.9.993 6.668 2.76 1.768 1.77 2.76 4.167 2.76 6.667L453 299l-34.016-2.525v23.57c0 5.206-4.22 9.427-9.428 9.427h-190.12c-5.206 0-9.427-4.22-9.427-9.427v-37.712z"/><path fill="#000" d="M278.125 287.143q-1.89 0-2.984 1.265-1.07 1.25-1.07 3.422 0 2.25 1.048 3.47 1.047 1.218 3 1.218 1.188 0 2.72-.422v1.156q-1.188.453-2.923.453-2.53 0-3.906-1.53-1.36-1.532-1.36-4.36 0-1.766.657-3.094.658-1.32 1.908-2.04t2.938-.72q1.8 0 3.14.66l-.56 1.14q-1.296-.61-2.593-.61zm12.39 6.11q0 2.093-1.062 3.28-1.047 1.172-2.906 1.172-1.14 0-2.03-.53-.892-.548-1.376-1.548-.48-1.016-.48-2.375 0-2.094 1.05-3.25 1.05-1.172 2.908-1.172 1.797 0 2.844 1.203 1.063 1.188 1.063 3.22zm-6.515 0q0 1.64.656 2.5.656.858 1.922.858 1.28 0 1.938-.84.656-.86.656-2.51 0-1.624-.656-2.47-.657-.86-1.954-.86-1.265 0-1.92.846-.642.828-.642 2.484zm19.71 4.296v-5.58q0-1.02-.437-1.53-.437-.52-1.36-.52-1.218 0-1.796.7-.578.69-.578 2.14v4.78h-1.3v-5.58q0-1.015-.44-1.53-.44-.516-1.36-.516-1.22 0-1.8.734-.56.735-.56 2.39v4.5h-1.3v-8.56h1.063l.202 1.17h.06q.376-.625 1.03-.968.674-.36 1.5-.36 2.018 0 2.627 1.453h.064q.39-.67 1.11-1.06.733-.39 1.655-.39 1.454 0 2.17.75.737.733.737 2.373v5.592H303.7zm14.884 0v-5.58q0-1.02-.438-1.53-.437-.52-1.36-.52-1.218 0-1.796.7-.578.69-.578 2.14v4.78h-1.297v-5.58q0-1.015-.438-1.53-.437-.516-1.36-.516-1.218 0-1.796.734-.56.735-.56 2.39v4.5h-1.29v-8.56h1.06l.205 1.17h.06q.376-.625 1.03-.968.674-.36 1.5-.36 2.018 0 2.627 1.453h.06q.39-.67 1.107-1.06.733-.39 1.655-.39 1.455 0 2.174.75.734.733.734 2.373v5.592h-1.296zm9.226 0l-.25-1.22h-.062q-.64.79-1.28 1.09-.642.28-1.595.28-1.266 0-2-.66-.72-.657-.72-1.876 0-2.594 4.157-2.72l1.453-.046v-.53q0-1-.437-1.485-.438-.485-1.39-.485-1.063 0-2.423.66l-.39-.987q.625-.343 1.375-.53.765-.203 1.515-.203 1.532 0 2.266.685.75.675.75 2.175v5.845h-.97zm-2.922-.93q1.204 0 1.89-.658.704-.67.704-1.86v-.78l-1.297.062q-1.547.046-2.234.483-.68.422-.68 1.313 0 .703.42 1.078.44.36 1.206.36zm12.414.92V292q0-1.047-.484-1.562-.47-.516-1.484-.516-1.344 0-1.97.734-.624.72-.624 2.39v4.5h-1.297v-8.562h1.063l.203 1.172h.06q.4-.64 1.12-.984.72-.344 1.59-.344 1.547 0 2.328.75.78.735.78 2.375v5.594h-1.296zm9.79-1.157h-.063q-.91 1.312-2.69 1.312-1.69 0-2.63-1.14-.92-1.158-.92-3.283 0-2.11.934-3.28.94-1.17 2.61-1.17 1.734 0 2.67 1.265h.095l-.047-.626-.03-.593v-3.483h1.294v12.155h-1.064l-.17-1.158zm-2.594.22q1.328 0 1.922-.72.61-.72.61-2.327v-.28q0-1.81-.61-2.594-.61-.784-1.938-.784-1.14 0-1.75.89-.594.89-.594 2.5 0 1.64.594 2.484.61.83 1.766.83zm12.1-1.407q0 1.203-.89 1.86-.89.64-2.5.64-1.702 0-2.656-.547v-1.203q.61.315 1.313.5.72.174 1.375.174 1.016 0 1.562-.31.547-.33.547-1 0-.5-.44-.844-.44-.36-1.69-.846-1.208-.45-1.708-.78t-.75-.75q-.25-.42-.25-1.015 0-1.048.844-1.64.86-.61 2.344-.61 1.39 0 2.7.562l-.45 1.046q-1.3-.533-2.346-.533-.92 0-1.39.296-.47.28-.47.797 0 .345.172.595.187.235.58.454.39.216 1.5.622 1.513.562 2.044 1.125.548.56.548 1.403zM235.82 312.16q0-2.062.61-3.86.61-1.812 1.75-3.17h1.265q-1.125 1.5-1.703 3.312-.562 1.796-.562 3.703 0 1.875.578 3.672.578 1.796 1.672 3.265h-1.25q-1.157-1.328-1.766-3.094-.594-1.78-.594-3.828zm11 2.047q0 1.203-.89 1.86-.89.64-2.5.64-1.703 0-2.657-.547v-1.203q.61.313 1.313.5.72.172 1.375.172 1.02 0 1.57-.317.55-.33.55-1 0-.5-.437-.844-.44-.36-1.69-.84-1.202-.45-1.702-.78t-.75-.75q-.25-.42-.25-1.016 0-1.046.845-1.64.86-.61 2.345-.61 1.39 0 2.703.564l-.453 1.046q-1.296-.53-2.343-.53-.92 0-1.39.296-.47.28-.47.797 0 .345.175.595.186.235.58.454.39.216 1.5.622 1.512.562 2.043 1.125.547.56.547 1.404zm4.867 1.422q.344 0 .657-.05.328-.05.515-.11v1q-.21.11-.63.17-.41.063-.74.063-2.484 0-2.484-2.625v-5.094h-1.22v-.625l1.22-.53.546-1.824h.75v1.983h2.485v1h-2.485v5.047q0 .765.36 1.187.376.407 1.016.407zm8.15.92l-.25-1.22h-.064q-.64.79-1.28 1.09-.64.28-1.595.28-1.265 0-2-.658-.718-.657-.718-1.876 0-2.595 4.156-2.72l1.453-.047v-.53q0-1-.44-1.485-.44-.486-1.39-.486-1.07 0-2.43.656l-.39-.985q.624-.343 1.374-.53.766-.203 1.516-.203 1.53 0 2.266.688.75.674.75 2.174v5.843h-.97zm-2.923-.93q1.203 0 1.89-.656.704-.67.704-1.86v-.78l-1.297.062q-1.54.045-2.23.482-.69.42-.69 1.312 0 .702.42 1.077.44.36 1.21.36zm10.46-7.797q.58 0 1.032.093l-.187 1.202q-.54-.126-.94-.126-1.03 0-1.78.843-.74.846-.74 2.11v4.595h-1.3v-8.564h1.077l.14 1.58h.063q.485-.83 1.157-1.28.672-.455 1.47-.455zm5.392 7.796q.343 0 .656-.047.328-.048.515-.11v1q-.203.11-.625.172-.406.06-.734.06-2.484 0-2.484-2.624v-5.094h-1.22v-.626l1.22-.53.547-1.826h.75v1.984h2.49v1h-2.48v5.047q0 .765.36 1.187.376.41 1.017.41zm7.226-10.5l-4.265 11.422h-1.297l4.265-11.423h1.297zm7.063 9.08q0 1.203-.89 1.86-.892.64-2.5.64-1.704 0-2.657-.547v-1.203q.61.317 1.312.5.72.176 1.375.176 1.016 0 1.563-.312.547-.33.547-1 0-.5-.438-.843-.437-.36-1.687-.84-1.203-.453-1.703-.78-.5-.33-.75-.75-.25-.423-.25-1.017 0-1.046.843-1.64.86-.61 2.344-.61 1.39 0 2.703.564l-.453 1.048q-1.297-.53-2.344-.53-.922 0-1.39.296-.47.28-.47.798 0 .344.173.594.187.234.578.453.4.215 1.5.62 1.52.563 2.05 1.126.55.56.55 1.405zm4.867 1.422q.344 0 .656-.047.328-.048.516-.11v1q-.203.11-.625.172-.41.06-.74.06-2.49 0-2.49-2.626v-5.094h-1.22v-.627l1.22-.53.547-1.83h.75v1.985h2.484v1h-2.482v5.047q0 .765.36 1.187.374.407 1.015.407zm10.273-3.375q0 2.092-1.062 3.28-1.047 1.17-2.906 1.17-1.14 0-2.032-.53-.89-.545-1.375-1.545-.484-1.016-.484-2.375 0-2.093 1.047-3.25 1.047-1.17 2.906-1.17 1.79 0 2.84 1.2 1.06 1.19 1.06 3.22zm-6.515 0q0 1.64.656 2.5.656.86 1.922.86 1.28 0 1.937-.846.657-.86.657-2.515 0-1.625-.657-2.47-.656-.858-1.953-.858-1.265 0-1.922.846-.64.828-.64 2.484zm12.773 4.45q-.828 0-1.53-.31-.69-.31-1.157-.95h-.094q.094.75.094 1.435v3.516h-1.297v-12.41h1.06l.17 1.17h.06q.5-.702 1.153-1.014.672-.315 1.53-.315 1.704 0 2.626 1.17.94 1.157.94 3.25 0 2.11-.955 3.28-.935 1.174-2.61 1.174zm-.187-7.78q-1.313 0-1.907.736-.58.72-.6 2.313v.28q0 1.813.59 2.594.61.767 1.937.767 1.11 0 1.734-.89.64-.905.64-2.484 0-1.593-.64-2.453-.624-.86-1.764-.86zm7.367 5.768l.125.17q-.203.78-.594 1.812-.375 1.047-.797 1.937h-.97q.205-.81.455-2.015.265-1.19.36-1.907h1.42zm12.25-.487q0 1.203-.89 1.86-.89.64-2.5.64-1.704 0-2.657-.547v-1.202q.61.315 1.312.5.72.174 1.375.174 1.016 0 1.563-.312.547-.33.547-1 0-.5-.438-.843-.437-.36-1.687-.845-1.203-.454-1.703-.78-.5-.33-.75-.75-.25-.424-.25-1.018 0-1.048.843-1.64.86-.61 2.344-.61 1.39 0 2.703.562l-.453 1.046q-1.297-.533-2.344-.533-.92 0-1.39.296-.47.28-.47.798 0 .343.173.593.19.236.58.455.39.216 1.5.622 1.52.56 2.05 1.124.55.56.55 1.406zm7.367 2.344l-.25-1.22h-.063q-.64.797-1.28 1.094-.64.28-1.595.28-1.265 0-2-.657-.718-.657-.718-1.876 0-2.594 4.156-2.72l1.453-.046v-.53q0-1-.437-1.484-.438-.486-1.39-.486-1.064 0-2.423.658l-.39-.985q.624-.343 1.374-.53.766-.203 1.516-.203 1.53 0 2.266.686.75.67.75 2.17v5.844h-.97zm-2.922-.923q1.203 0 1.89-.655.704-.67.704-1.86v-.78l-1.297.062q-1.547.044-2.234.48-.68.423-.68 1.314 0 .703.42 1.078.44.36 1.206.36zm8.43.923l-3.25-8.564h1.39l1.844 5.08q.625 1.78.735 2.31h.062q.09-.42.54-1.717.45-1.297 2.044-5.672h1.39l-3.25 8.566h-1.515zm9.765.155q-1.906 0-3-1.156-1.093-1.157-1.093-3.22 0-2.062 1.015-3.28 1.016-1.22 2.735-1.22 1.61 0 2.547 1.063.937 1.046.937 2.78v.83h-5.89q.03 1.5.75 2.28.734.78 2.046.78 1.375 0 2.735-.58v1.16q-.688.296-1.313.42-.61.14-1.47.14zm-.36-7.797q-1.03 0-1.64.674-.61.67-.718 1.86h4.468q0-1.22-.546-1.876-.547-.654-1.563-.654zm7.07 5.784l.126.17q-.21.782-.6 1.813-.378 1.046-.8 1.936H355q.203-.81.453-2.014.266-1.19.36-1.907h1.42zm10.345 2.014q-1.906 0-3-1.153-1.094-1.158-1.094-3.22 0-2.063 1.016-3.28 1.016-1.22 2.734-1.22 1.61 0 2.547 1.062.94 1.044.94 2.78v.83h-5.89q.03 1.5.75 2.28.74.78 2.05.78 1.38 0 2.738-.58v1.16q-.687.294-1.312.42-.61.14-1.47.14zm-.36-7.794q-1.03 0-1.64.673-.61.67-.72 1.86h4.47q0-1.22-.547-1.876-.54-.656-1.56-.656zm8.477 6.72q.344 0 .657-.047.328-.048.515-.11v1q-.203.11-.625.172-.406.06-.734.06-2.485 0-2.485-2.624v-5.095h-1.218v-.624l1.218-.53.547-1.826h.75v1.984h2.485v1h-2.485v5.048q0 .766.36 1.19.375.405 1.015.405zM382 316.7q-1.86 0-2.875-1.14-1.016-1.157-1.016-3.25 0-2.14 1.03-3.313t2.95-1.173q.61 0 1.22.14.62.126.98.298l-.407 1.11q-.42-.173-.938-.282-.5-.125-.89-.125-2.61 0-2.61 3.33 0 1.577.624 2.42.64.845 1.89.845 1.08 0 2.204-.454v1.14q-.86.454-2.17.454zm4.008-.984q0-.53.234-.796.25-.266.688-.266.453 0 .703.266.265.266.265.797 0 .5-.265.78-.25.28-.703.28-.39 0-.657-.25-.265-.25-.265-.81zm7.164-3.562q0 2.063-.61 3.844-.593 1.766-1.734 3.078h-1.25q1.078-1.47 1.656-3.265.578-1.79.578-3.67 0-1.9-.562-3.7-.563-1.81-1.688-3.31h1.266q1.14 1.36 1.734 3.17.61 1.81.61 3.86z"/><path d="M210 347.882c0-5.207 4.22-9.428 9.428-9.428H409.55c2.5 0 4.897.993 6.665 2.76 1.768 1.77 2.76 4.167 2.76 6.668v23.57L428 367l-9.024 18.593c0 5.207-4.22 9.428-9.427 9.428H219.42c-5.207 0-9.428-4.22-9.428-9.42v-14.15z"/><path stroke="#000" stroke-width="2" stroke-linejoin="round" stroke-linecap="butt" d="M210 347.882c0-5.207 4.22-9.428 9.428-9.428H409.55c2.5 0 4.897.993 6.665 2.76 1.768 1.77 2.76 4.167 2.76 6.668v23.57L428 367l-9.024 18.593c0 5.207-4.22 9.428-9.427 9.428H219.42c-5.207 0-9.428-4.22-9.428-9.42v-14.15z"/><path fill="#000" d="M270.683 360.05q0 1.516-1.093 2.36-1.094.844-2.97.844-2.03 0-3.124-.53v-1.283q.703.3 1.53.47.83.18 1.642.18 1.328 0 2-.5.672-.5.672-1.405 0-.594-.235-.97-.234-.374-.797-.687-.562-.33-1.703-.734-1.593-.58-2.28-1.36-.673-.78-.673-2.03 0-1.33.985-2.11 1-.78 2.625-.78 1.703 0 3.14.624l-.422 1.154q-1.406-.593-2.75-.593-1.047 0-1.64.453-.594.455-.594 1.267 0 .594.22.97.217.374.733.702.51.31 1.59.686 1.79.64 2.47 1.374.67.734.67 1.906zm4.907 2.126q.344 0 .656-.047.328-.05.516-.11v1q-.204.11-.625.17-.407.06-.735.06-2.484 0-2.484-2.63v-5.095h-1.22v-.625l1.22-.53.547-1.83h.75v1.986h2.484v1h-2.49v5.05q0 .764.36 1.185.37.408 1.01.408zm8.148.922l-.25-1.22h-.062q-.64.798-1.282 1.095-.64.28-1.593.28-1.26 0-2-.655-.71-.657-.71-1.875 0-2.594 4.157-2.72l1.453-.046v-.53q0-1-.437-1.486-.44-.48-1.39-.48-1.063 0-2.423.66l-.39-.982q.625-.344 1.375-.53.763-.205 1.513-.205 1.533 0 2.267.688.75.673.75 2.173v5.842h-.97zm-2.922-.922q1.203 0 1.89-.657.704-.68.704-1.86v-.78l-1.297.06q-1.547.04-2.234.48-.69.42-.69 1.31 0 .702.42 1.08.44.36 1.2.36zm9.32 0q.344 0 .657-.047.328-.05.515-.11v1q-.203.11-.625.17-.406.06-.734.06-2.49 0-2.49-2.63v-5.095h-1.22v-.625l1.22-.53.543-1.83h.75v1.986h2.484v1h-2.484v5.05q0 .764.36 1.185.376.408 1.017.408zm6.508 1.078q-1.906 0-3-1.156-1.093-1.157-1.093-3.22 0-2.062 1.02-3.28 1.02-1.22 2.74-1.22 1.61 0 2.548 1.063.938 1.05.938 2.79v.83h-5.89q.03 1.5.75 2.28.735.78 2.047.78 1.376 0 2.736-.576v1.156q-.69.297-1.315.422-.61.14-1.47.14zm-.36-7.797q-1.03 0-1.64.672-.61.67-.718 1.85h4.468q0-1.22-.546-1.876-.547-.656-1.563-.656zm13.29 7.797q-1.86 0-2.875-1.14-1.02-1.157-1.02-3.25 0-2.14 1.03-3.313 1.03-1.17 2.95-1.17.61 0 1.22.14.623.13.982.3l-.406 1.11q-.42-.17-.938-.28-.5-.122-.89-.122-2.61 0-2.61 3.33 0 1.577.624 2.42.64.844 1.89.844 1.08 0 2.204-.453v1.14q-.86.454-2.17.454zm10.055-.156v-5.547q0-1.04-.49-1.56-.47-.51-1.49-.51-1.344 0-1.97.736t-.624 2.406v4.485h-1.297v-12.16h1.296v3.674q0 .67-.06 1.11h.076q.39-.625 1.094-.97.706-.36 1.61-.36 1.58 0 2.36.75.78.736.78 2.36v5.595h-1.294zm9.22 0l-.25-1.22h-.06q-.64.798-1.28 1.095-.64.28-1.6.28-1.266 0-2-.655-.72-.657-.72-1.875 0-2.594 4.157-2.72l1.453-.046v-.53q0-1-.436-1.486-.44-.48-1.39-.48-1.064 0-2.424.66l-.39-.982q.625-.344 1.375-.53.765-.205 1.515-.205 1.532 0 2.266.688.75.673.75 2.173v5.842h-.97zm-2.92-.922q1.2 0 1.89-.657.7-.68.7-1.86v-.78l-1.298.06q-1.548.04-2.235.48-.688.42-.688 1.31 0 .702.42 1.08.438.36 1.203.36zm12.41.922v-5.547q0-1.04-.485-1.56-.47-.51-1.483-.51-1.345 0-1.97.736-.625.72-.625 2.39v4.5h-1.298v-8.562h1.062l.2 1.173h.064q.406-.64 1.124-.986.72-.344 1.595-.344 1.547 0 2.33.75.78.734.78 2.375v5.595h-1.296zm10.976-8.563v.813l-1.594.187q.22.28.39.72.172.436.172 1 0 1.25-.86 2t-2.36.75q-.376 0-.72-.064-.828.44-.828 1.11 0 .35.28.52.298.17 1 .17h1.517q1.39 0 2.14.6.75.578.75 1.703 0 1.42-1.14 2.156-1.14.75-3.327.75-1.688 0-2.594-.625-.907-.624-.907-1.764 0-.78.5-1.36.5-.56 1.405-.763-.327-.16-.56-.47-.22-.313-.22-.72 0-.47.25-.81.25-.36.797-.69-.67-.28-1.093-.936-.406-.655-.406-1.5 0-1.405.844-2.155.847-.765 2.39-.765.676 0 1.207.154h2.97zm-6.828 10q0 .703.577 1.063.596.36 1.69.36 1.626 0 2.407-.5.797-.485.797-1.314 0-.703-.438-.984-.422-.266-1.61-.266h-1.562q-.874 0-1.374.422-.49.438-.49 1.22zm.702-7.266q0 .9.5 1.37.515.45 1.42.45 1.892 0 1.892-1.845 0-1.938-1.924-1.938-.905 0-1.405.5-.484.484-.484 1.452zm11.5 5.98q-1.907 0-3-1.16-1.095-1.158-1.095-3.22 0-2.06 1.018-3.28 1.016-1.22 2.734-1.22 1.61 0 2.547 1.062.94 1.047.94 2.782v.827h-5.89q.03 1.5.75 2.284.73.78 2.043.78 1.377 0 2.736-.576v1.156q-.688.298-1.313.423-.61.14-1.47.14zm-.36-7.8q-1.03 0-1.64.67-.61.67-.72 1.86h4.47q0-1.22-.548-1.876t-1.564-.656zm11.242 5.295q0 1.203-.89 1.86-.89.64-2.5.64-1.706 0-2.66-.547v-1.2q.61.312 1.314.5.72.172 1.375.172 1.016 0 1.563-.313.545-.328.545-1 0-.5-.44-.844-.436-.36-1.686-.844-1.204-.454-1.704-.783-.5-.322-.75-.75-.25-.42-.25-1.01 0-1.05.845-1.64.86-.61 2.344-.61 1.39 0 2.702.562l-.454 1.047q-1.297-.53-2.343-.53-.92 0-1.39.296-.47.28-.47.798 0 .346.173.596.19.234.58.453.39.216 1.5.623 1.515.562 2.046 1.125.547.56.547 1.405zM224.08 377.702q0-2.063.61-3.86.61-1.812 1.75-3.17h1.266q-1.124 1.5-1.7 3.31-.565 1.798-.565 3.704 0 1.875.58 3.672t1.67 3.266h-1.25q-1.152-1.33-1.76-3.096-.593-1.78-.593-3.828zm9.376-4.328q.58 0 1.032.092l-.19 1.2q-.53-.124-.937-.124-1.03 0-1.78.844-.732.845-.732 2.11v4.595h-1.294v-8.56h1.08l.14 1.58h.063q.484-.828 1.156-1.28.673-.454 1.47-.454zm6.25 8.873q-1.905 0-3-1.156-1.093-1.153-1.093-3.22 0-2.06 1.016-3.28 1.01-1.22 2.73-1.22 1.61 0 2.547 1.067.94 1.048.94 2.783v.83h-5.89q.03 1.5.75 2.283.734.78 2.05.78 1.372 0 2.73-.576v1.156q-.685.3-1.31.424-.61.14-1.47.14zm-.36-7.797q-1.03 0-1.64.672-.61.67-.718 1.858h4.47q0-1.22-.55-1.875-.547-.658-1.563-.658zm9.134 7.797q-1.86 0-2.873-1.14-1.017-1.154-1.017-3.25 0-2.14 1.03-3.31t2.953-1.17q.61 0 1.22.14.624.124.983.296l-.403 1.11q-.422-.172-.938-.282-.5-.12-.89-.12-2.61 0-2.61 3.324 0 1.58.623 2.42.64.846 1.89.846 1.08 0 2.204-.454v1.14q-.86.453-2.172.453zm11.588-4.45q0 2.094-1.06 3.28-1.047 1.174-2.907 1.174-1.14 0-2.03-.53-.89-.544-1.37-1.544-.484-1.016-.484-2.375 0-2.09 1.05-3.25 1.047-1.17 2.906-1.17 1.795 0 2.84 1.204 1.065 1.187 1.065 3.22zm-6.513 0q0 1.64.656 2.5.66.86 1.928.86 1.28 0 1.937-.844.657-.86.657-2.515 0-1.622-.66-2.466-.655-.86-1.952-.86-1.268 0-1.924.844-.64.828-.64 2.485zm12.695-4.42q.58 0 1.03.093l-.186 1.204q-.532-.125-.938-.125-1.03 0-1.78.84-.737.845-.737 2.11v4.595h-1.3v-8.563h1.08l.14 1.578h.06q.483-.827 1.155-1.28.67-.453 1.47-.453zm8.453 7.56h-.062q-.9 1.314-2.68 1.314-1.688 0-2.626-1.14-.922-1.153-.922-3.28 0-2.11.94-3.28.936-1.17 2.61-1.17 1.732 0 2.67 1.263h.094l-.046-.623-.03-.597v-3.483h1.295v12.16h-1.06l-.173-1.156zm-2.594.22q1.32 0 1.92-.72.61-.717.61-2.327v-.28q0-1.813-.61-2.594-.61-.78-1.94-.78-1.14 0-1.75.89-.596.89-.596 2.5 0 1.64.593 2.482.61.828 1.765.828zm7.86.938h-1.296v-8.563h1.295v8.563zm-1.406-10.89q0-.44.22-.642.217-.218.545-.218.312 0 .53.218.235.203.235.64 0 .438-.232.657-.22.22-.53.22-.33 0-.546-.22-.22-.22-.22-.655zm10.015 10.89v-5.547q0-1.044-.485-1.56-.466-.515-1.482-.515-1.342 0-1.97.734-.622.72-.622 2.39v4.5h-1.296v-8.563h1.063l.2 1.172h.064q.406-.64 1.125-.985.717-.34 1.592-.34 1.547 0 2.328.75.784.73.784 2.373v5.595h-1.3zm10.976-8.563v.813l-1.593.187q.218.28.39.72.17.436.17 1 0 1.25-.86 2t-2.36.75q-.372 0-.715-.064-.83.44-.83 1.11 0 .346.28.518.3.172 1 .172h1.516q1.39 0 2.14.592.75.58.75 1.705 0 1.422-1.14 2.156-1.14.75-3.326.75-1.686 0-2.592-.62-.905-.624-.905-1.764 0-.78.5-1.36.5-.56 1.408-.763-.327-.16-.56-.47-.22-.313-.22-.72 0-.47.25-.81.25-.36.797-.69-.67-.28-1.095-.936-.406-.655-.406-1.5 0-1.405.844-2.155.845-.765 2.39-.765.673 0 1.205.155h2.966zm-6.828 10q0 .703.576 1.063.595.36 1.69.36 1.624 0 2.405-.5.797-.485.797-1.314 0-.7-.438-.98-.423-.267-1.61-.267h-1.563q-.874 0-1.374.423-.485.438-.485 1.22zm.7-7.266q0 .903.5 1.37.515.456 1.42.456 1.89 0 1.89-1.844 0-1.937-1.922-1.937-.907 0-1.407.5-.483.49-.483 1.457zm9.234 3.965l.124.176q-.205.78-.596 1.812-.376 1.044-.798 1.935h-.97q.204-.812.454-2.016.27-1.19.36-1.908h1.425zm12.577 1.86v-5.543q0-1.047-.483-1.563-.47-.514-1.486-.514-1.342 0-1.967.734t-.626 2.407v4.49h-1.294v-12.16h1.296v3.672q0 .673-.065 1.11h.076q.39-.624 1.095-.97.703-.36 1.61-.36 1.577 0 2.36.75.78.737.78 2.36v5.596h-1.297zm11.35-4.293q0 2.093-1.06 3.28-1.047 1.17-2.906 1.17-1.14 0-2.03-.53-.89-.546-1.375-1.546-.485-1.016-.485-2.375 0-2.093 1.048-3.25 1.046-1.17 2.905-1.17 1.795 0 2.842 1.202 1.06 1.19 1.06 3.22zm-6.513 0q0 1.64.655 2.5.656.86 1.922.86 1.28 0 1.937-.845.66-.86.66-2.515 0-1.624-.66-2.468-.653-.86-1.95-.86-1.265 0-1.922.844-.64.83-.64 2.487zm11.554 3.375q.345 0 .658-.047.33-.05.516-.11v1q-.203.11-.625.17-.404.063-.73.063-2.485 0-2.485-2.626v-5.097h-1.22v-.628l1.22-.53.545-1.83h.75v1.985h2.484v1h-2.483v5.047q0 .765.36 1.186.374.408 1.015.408zm4.166-3.47q.34-.47 1.03-1.25l2.764-2.92h1.534l-3.47 3.64 3.72 4.92H339.8l-3.016-4.045-.985.844v3.204h-1.28v-12.16h1.28v6.44q0 .436-.066 1.327h.063zm10.74 4.548q-1.906 0-3-1.154-1.094-1.157-1.094-3.22 0-2.062 1.015-3.28 1.016-1.22 2.735-1.22 1.61 0 2.546 1.063.937 1.05.937 2.783v.83h-5.89q.03 1.5.75 2.28.733.78 2.046.78 1.376 0 2.735-.576v1.156q-.687.3-1.31.422-.61.14-1.47.14zm-.36-7.795q-1.03 0-1.64.672-.61.67-.72 1.856h4.47q0-1.22-.547-1.874t-1.564-.656zm4.352-.922h1.39l1.875 4.876q.625 1.67.765 2.42h.063q.11-.407.42-1.36.33-.97 2.127-5.938h1.39l-3.67 9.75q-.548 1.453-1.28 2.047-.736.61-1.8.61-.593 0-1.17-.128v-1.048q.44.092.97.092 1.327 0 1.905-1.5l.47-1.22-3.454-8.608zm14.952 6.22q0 1.203-.89 1.86-.89.64-2.5.64-1.703 0-2.656-.546V380.5q.61.313 1.312.5.72.173 1.375.173 1.016 0 1.563-.313.546-.328.546-1 0-.5-.437-.844-.44-.36-1.69-.845-1.203-.45-1.703-.78t-.75-.75-.25-1.01q0-1.05.846-1.64.86-.61 2.344-.61 1.392 0 2.705.562l-.453 1.047q-1.294-.53-2.34-.53-.923 0-1.39.295-.47.28-.47.797 0 .342.17.592.19.235.58.454.39.218 1.5.625 1.515.56 2.046 1.126.55.56.55 1.405zm3.46.484l.127.172q-.204.78-.595 1.81-.375 1.047-.797 1.938h-.97q.2-.814.45-2.018.268-1.187.36-1.906h1.42zm10.346 2.016q-1.905 0-3-1.157-1.093-1.158-1.093-3.22 0-2.063 1.016-3.28 1.013-1.22 2.732-1.22 1.61 0 2.547 1.062.935 1.05.935 2.784v.826h-5.89q.03 1.5.75 2.282.734.78 2.047.78 1.375 0 2.734-.578v1.156q-.687.3-1.31.423-.61.14-1.47.14zm-.36-7.798q-1.03 0-1.64.672-.61.67-.72 1.856h4.47q0-1.22-.546-1.874t-1.563-.656zm8.478 6.72q.344 0 .656-.048.33-.05.516-.11v1q-.204.11-.626.17-.403.062-.732.062-2.483 0-2.483-2.627v-5.094h-1.22v-.626l1.22-.53.547-1.83h.75v1.988h2.482v1h-2.485v5.047q0 .765.36 1.186.374.407 1.015.407zm6.305 1.077q-1.86 0-2.877-1.14-1.016-1.158-1.016-3.25 0-2.14 1.03-3.314 1.032-1.17 2.953-1.17.61 0 1.22.14.626.126.986.298l-.407 1.11q-.42-.173-.938-.283-.5-.124-.89-.124-2.61 0-2.61 3.327 0 1.578.625 2.42.64.845 1.89.845 1.08 0 2.204-.45v1.14q-.86.453-2.17.453zm4.005-.986q0-.533.236-.798.25-.266.69-.266.452 0 .702.267.27.264.27.795 0 .5-.267.78-.25.28-.702.28-.39 0-.655-.25t-.266-.812zm7.166-3.564q0 2.063-.61 3.845-.592 1.767-1.732 3.08h-1.25q1.077-1.47 1.655-3.266.578-1.8.578-3.674 0-1.902-.56-3.7-.562-1.81-1.69-3.31h1.27q1.14 1.36 1.735 3.17.61 1.81.61 3.86z"/><path d="M440 525v18h.063v18"/><path stroke="#000" stroke-width="2" stroke-linejoin="round" stroke-linecap="butt" d="M440 537v6h.063v6"/><path fill="#000" stroke="#000" stroke-width="2" stroke-linecap="butt" d="M443.303 537L440 527.924 436.697 537zm-6.543 12l3.303 9.076 3.303-9.076z" fill-rule="evenodd"/><path d="M542 535.417h249.984v56.567H542z"/><path stroke="#000" stroke-width="2" stroke-linejoin="round" stroke-linecap="butt" d="M542 535.417h249.984v56.567H542z"/><path fill="#000" d="M617.082 561.467q0 1.734-1.188 2.672-1.17.92-3.375.92h-1.35v4.5h-1.33v-11.42h2.952q4.28 0 4.28 3.32zm-5.906 2.453h1.187q1.766 0 2.547-.562.797-.578.797-1.828 0-1.14-.75-1.688-.734-.562-2.297-.562h-1.484v4.64zm13.367 5.64l-.25-1.218h-.063q-.64.797-1.28 1.094-.64.28-1.595.28-1.265 0-2-.655-.718-.65-.718-1.87 0-2.59 4.156-2.72l1.453-.04v-.53q0-1-.437-1.485-.44-.485-1.4-.485-1.064 0-2.42.656l-.39-.982q.622-.344 1.372-.53.765-.204 1.515-.204 1.53 0 2.266.685.75.67.75 2.17v5.845h-.97zm-2.922-.92q1.21 0 1.9-.657.704-.672.704-1.86v-.78l-1.297.062q-1.547.046-2.234.484-.69.42-.69 1.31 0 .7.424 1.08.435.36 1.2.36zm13.57-7.642v.813l-1.59.19q.22.29.39.72.18.44.18 1 0 1.25-.86 2t-2.36.75q-.374 0-.717-.06-.83.44-.83 1.11 0 .348.28.52.3.17 1 .17h1.517q1.39 0 2.14.595.75.578.75 1.703 0 1.423-1.14 2.158-1.14.75-3.33.75-1.686 0-2.592-.624-.907-.625-.907-1.766 0-.78.5-1.36.5-.564 1.406-.767-.33-.157-.563-.47-.22-.31-.22-.72 0-.467.25-.81.25-.36.8-.69-.67-.28-1.093-.936-.406-.655-.406-1.5 0-1.405.844-2.155.843-.765 2.39-.765.67 0 1.203.157h2.97zm-6.82 10q0 .703.58 1.063.595.36 1.69.36 1.624 0 2.405-.5.797-.48.797-1.31 0-.7-.44-.98-.42-.263-1.61-.263h-1.56q-.875 0-1.375.42-.484.44-.484 1.22zm.705-7.265q0 .906.5 1.375.516.453 1.42.453 1.89 0 1.89-1.84 0-1.93-1.92-1.93-.906 0-1.406.5-.485.484-.485 1.453zm11.5 5.984q-1.906 0-3-1.156-1.093-1.15-1.093-3.21t1.015-3.28q1.017-1.22 2.736-1.22 1.61 0 2.548 1.064.94 1.046.94 2.78v.83h-5.89q.03 1.5.75 2.28.734.78 2.046.78 1.375 0 2.735-.577v1.157q-.69.294-1.313.42-.61.14-1.47.14zm-.36-7.797q-1.03 0-1.64.672-.61.672-.72 1.86h4.47q0-1.22-.548-1.876-.545-.656-1.56-.656zm11.087-.922v5.547q0 1.047.47 1.563.483.515 1.5.515 1.34 0 1.967-.734.625-.74.625-2.4v-4.5h1.295v8.562h-1.078l-.19-1.156h-.06q-.407.64-1.11.984-.703.327-1.61.327-1.56 0-2.343-.732-.783-.75-.783-2.39v-5.595h1.314zm14.46 8.563v-5.54q0-1.044-.484-1.56-.47-.514-1.484-.514-1.343 0-1.97.734-.623.72-.623 2.39v4.5h-1.3V561h1.063l.203 1.172h.064q.4-.64 1.12-.984.716-.344 1.59-.344 1.55 0 2.33.75.78.734.78 2.375v5.59h-1.295zm9.79-1.15h-.063q-.906 1.31-2.687 1.31-1.687 0-2.624-1.14-.923-1.152-.923-3.28 0-2.11.94-3.28.936-1.17 2.61-1.17 1.732 0 2.67 1.266h.094l-.046-.625-.03-.594v-3.484h1.297v12.157h-1.06l-.17-1.153zm-2.594.22q1.328 0 1.92-.72.61-.72.61-2.33v-.28q0-1.81-.61-2.59-.607-.78-1.935-.78-1.14 0-1.75.89-.593.89-.593 2.5 0 1.64.595 2.484.61.828 1.766.828zm10.195 1.096q-1.905 0-3-1.156-1.092-1.156-1.092-3.22 0-2.062 1.018-3.28 1.017-1.22 2.736-1.22 1.61 0 2.55 1.063.936 1.046.936 2.78v.83h-5.89q.03 1.5.75 2.28.734.78 2.046.78 1.377 0 2.737-.577v1.16q-.69.295-1.313.42-.61.14-1.47.14zm-.36-7.797q-1.03 0-1.64.672-.61.67-.717 1.86h4.466q0-1.22-.547-1.876-.547-.658-1.563-.658zm9.62-1.078q.577 0 1.03.094l-.187 1.2q-.53-.125-.94-.125-1.033 0-1.783.844-.736.84-.736 2.11v4.59H688.5V561h1.078l.14 1.578h.063q.485-.828 1.157-1.28.67-.454 1.468-.454zm9.546 7.797q.34 0 .653-.05.33-.047.514-.11v1q-.202.11-.624.173-.406.064-.734.064-2.486 0-2.486-2.627V562h-1.22v-.625l1.218-.53.547-1.83h.75V561h2.484v1h-2.487v5.047q0 .766.36 1.188.378.406 1.018.406zm6.505 1.076q-1.905 0-3-1.158-1.093-1.154-1.093-3.217t1.015-3.28q1.015-1.22 2.734-1.22 1.61 0 2.55 1.063.937 1.047.937 2.78v.83h-5.89q.03 1.5.75 2.28.734.78 2.047.78 1.376 0 2.735-.576v1.156q-.687.295-1.31.42-.61.14-1.47.14zm-.36-7.8q-1.03 0-1.64.673-.61.67-.72 1.86h4.47q0-1.22-.546-1.877-.55-.656-1.563-.656zm11.244 5.298q0 1.204-.89 1.86-.89.64-2.5.64-1.705 0-2.66-.546v-1.203q.61.31 1.314.5.72.17 1.375.17 1.013 0 1.56-.314.547-.33.547-1 0-.5-.44-.843-.435-.36-1.685-.844-1.202-.456-1.702-.784t-.75-.75q-.25-.423-.25-1.017 0-1.048.844-1.64.86-.61 2.343-.61 1.39 0 2.703.562l-.453 1.048q-1.3-.53-2.346-.53-.92 0-1.39.297-.47.28-.47.796 0 .345.174.595.187.23.578.45.39.22 1.5.628 1.517.562 2.048 1.125.55.565.55 1.41zm4.866 1.42q.344 0 .656-.05.33-.043.516-.11v1q-.205.11-.627.177-.405.06-.734.06-2.485 0-2.485-2.624V562h-1.22v-.626l1.22-.53.55-1.83h.75V561h2.483v1h-2.484v5.047q0 .766.36 1.188.373.406 1.014.406z"/><path fill="#fff" d="M440 585.428c0-5.207 4.22-9.428 9.428-9.428h17.743L444 547l63.927 29h85.67c2.5 0 4.897.993 6.665 2.76 1.768 1.77 2.762 4.167 2.762 6.668v37.712c0 5.206-4.22 9.427-9.428 9.427H449.43c-5.207 0-9.428-4.22-9.428-9.428v-37.72z"/><path stroke="#000" stroke-width="2" stroke-linejoin="round" stroke-linecap="butt" d="M440 585.428c0-5.207 4.22-9.428 9.428-9.428h17.743L444 547l63.927 29h85.67c2.5 0 4.897.993 6.665 2.76 1.768 1.77 2.762 4.167 2.762 6.668v37.712c0 5.206-4.22 9.427-9.428 9.427H449.43c-5.207 0-9.428-4.22-9.428-9.428v-37.72z"/><path fill="#000" d="M478.285 589.222v7.39q0 1.953-1.187 3.078-1.172 1.11-3.235 1.11-2.062 0-3.203-1.125-1.125-1.125-1.125-3.094v-7.35h1.328v7.454q0 1.42.782 2.187.78.766 2.297.766 1.453 0 2.234-.766.78-.767.78-2.205v-7.437h1.33zm3.024 11.42v-11.42h1.32v11.42h-1.33zm9.71 0h-1.3v-8.56h1.29v8.56zm-1.41-10.89q0-.437.22-.64.22-.22.54-.22.312 0 .53.22.235.203.235.64 0 .438-.235.657-.22.21-.53.21-.33 0-.547-.22-.22-.22-.22-.656zm10.01 10.89v-5.545q0-1.047-.485-1.563-.47-.516-1.485-.516-1.343 0-1.97.735-.622.72-.622 2.39v4.5h-1.298v-8.562h1.062l.202 1.18h.062q.405-.64 1.124-.983.72-.343 1.595-.343 1.545 0 2.327.75.78.734.78 2.375v5.594h-1.294zm6.726-.92q.343 0 .656-.047.327-.047.514-.11v1q-.2.11-.623.172-.407.063-.735.063-2.484 0-2.484-2.625v-5.094h-1.22v-.62l1.22-.53.546-1.83h.75v1.99h2.484v1h-2.484v5.048q0 .766.36 1.188.375.408 1.016.408zm6.507 1.078q-1.906 0-3-1.157-1.093-1.156-1.093-3.218 0-2.063 1.016-3.282 1.015-1.218 2.734-1.218 1.61 0 2.548 1.062.938 1.047.938 2.78v.83h-5.89q.03 1.5.75 2.28.733.782 2.045.782 1.378 0 2.738-.58v1.15q-.687.295-1.312.42-.61.14-1.47.14zm-.36-7.797q-1.03 0-1.64.672-.61.672-.718 1.86h4.467q0-1.22-.544-1.876-.548-.66-1.564-.66zm9.62-1.078q.58 0 1.03.093l-.187 1.204q-.53-.125-.936-.125-1.03 0-1.78.843-.734.844-.734 2.11v4.593h-1.297v-8.562h1.076l.14 1.58h.065q.486-.83 1.157-1.28.673-.45 1.47-.45zm7.89 8.718l-.25-1.218h-.063q-.64.797-1.28 1.093-.64.282-1.595.282-1.266 0-2-.657-.72-.656-.72-1.875 0-2.593 4.157-2.718l1.452-.047v-.53q0-1-.44-1.486-.436-.484-1.39-.484-1.062 0-2.42.656l-.39-.99q.623-.348 1.373-.53.765-.208 1.515-.208 1.53 0 2.266.687.75.672.75 2.172v5.842H530zm-2.92-.92q1.2 0 1.89-.658.702-.672.702-1.86v-.78l-1.298.062q-1.548.047-2.236.485-.684.42-.684 1.312 0 .703.42 1.078.438.36 1.204.36zm9.975 1.077q-1.86 0-2.876-1.14-1.014-1.157-1.014-3.25 0-2.142 1.03-3.313 1.033-1.172 2.955-1.172.61 0 1.22.14.623.125.982.297l-.407 1.11q-.422-.172-.937-.282-.5-.125-.89-.125-2.61 0-2.61 3.328 0 1.58.623 2.422.64.844 1.89.844 1.076 0 2.2-.46v1.14q-.86.45-2.17.45zm6.96-1.078q.343 0 .656-.047.327-.047.514-.11v1q-.203.11-.625.172-.407.063-.735.063-2.484 0-2.484-2.625v-5.094h-1.22v-.62l1.22-.53.546-1.83h.75v1.99h2.484v1h-2.484v5.048q0 .766.36 1.188.374.408 1.014.408zm4.18.92H546.9v-8.56h1.295v8.56zm-1.407-10.89q0-.437.22-.64.218-.22.547-.22.31 0 .53.22.234.203.234.64 0 .438-.232.657-.22.21-.53.21-.33 0-.547-.22-.22-.22-.22-.656zm11.548 6.595q0 2.093-1.062 3.28-1.045 1.173-2.904 1.173-1.144 0-2.034-.532-.89-.546-1.374-1.546-.485-1.016-.485-2.375 0-2.094 1.05-3.25 1.05-1.172 2.91-1.172 1.794 0 2.84 1.203 1.065 1.187 1.065 3.22zm-6.515 0q0 1.64.657 2.5.657.86 1.922.86 1.28 0 1.937-.845.657-.86.657-2.515 0-1.625-.657-2.47-.655-.86-1.952-.86-1.264 0-1.92.845-.64.828-.64 2.485zm14.65 4.296v-5.546q0-1.047-.485-1.563-.47-.516-1.484-.516-1.345 0-1.97.735-.625.72-.625 2.39v4.5h-1.296v-8.562h1.065l.202 1.18h.06q.406-.64 1.124-.983.72-.343 1.594-.343 1.548 0 2.33.75.78.734.78 2.375v5.594h-1.296zm8.304-11.42l-4.266 11.42h-1.297l4.263-11.42h1.297zM510.01 617.3q0 1.203-.89 1.86-.89.64-2.5.64-1.702 0-2.655-.547v-1.203q.606.312 1.31.5.72.172 1.374.172 1.012 0 1.56-.313.545-.33.545-1 0-.5-.44-.85-.436-.36-1.686-.847-1.203-.454-1.703-.78t-.75-.75q-.25-.424-.25-1.017 0-1.047.843-1.64.86-.61 2.347-.61 1.39 0 2.703.562l-.453 1.046q-1.295-.53-2.342-.53-.92 0-1.39.295-.468.28-.468.795 0 .345.17.595.188.235.58.453.39.22 1.5.625 1.515.563 2.046 1.125.545.563.545 1.407zm4.87 1.422q.343 0 .655-.047.325-.047.513-.11v1q-.204.11-.626.172-.407.063-.736.063-2.485 0-2.485-2.625v-5.094h-1.214v-.62l1.22-.53.546-1.83h.75v1.99h2.485v1H513.5v5.048q0 .766.36 1.188.375.408 1.016.408zm8.147.92l-.25-1.217h-.06q-.64.797-1.28 1.093-.64.282-1.594.282-1.266 0-2-.657-.72-.656-.72-1.875 0-2.593 4.157-2.718l1.457-.047v-.53q0-1-.438-1.486-.44-.484-1.39-.484-1.07 0-2.428.656l-.39-.99q.624-.348 1.374-.53.766-.208 1.516-.208 1.53 0 2.265.687.75.672.75 2.172v5.842h-.97zm-2.92-.92q1.205 0 1.89-.657.705-.672.705-1.86v-.78l-1.297.062q-1.546.047-2.234.485-.683.42-.683 1.312 0 .703.42 1.078.44.36 1.205.36zm9.32 0q.346 0 .658-.047.328-.047.516-.11v1q-.2.11-.62.172-.41.063-.738.063-2.484 0-2.484-2.625v-5.094h-1.22v-.62l1.22-.53.545-1.83h.75v1.99h2.487v1h-2.486v5.048q0 .766.36 1.188.374.408 1.015.408zm6.51 1.078q-1.907 0-3-1.157-1.094-1.156-1.094-3.218 0-2.063 1.016-3.282 1.012-1.218 2.73-1.218 1.61 0 2.548 1.062.94 1.047.94 2.78v.83h-5.89q.03 1.5.75 2.28.732.782 2.045.782 1.373 0 2.732-.58v1.15q-.69.295-1.315.42-.61.14-1.47.14zm-.36-7.797q-1.03 0-1.64.672-.61.672-.72 1.86h4.47q0-1.22-.547-1.876-.544-.66-1.56-.66z"/><path d="M681.992 195.913H715v.063h33.008"/><path stroke="#000" stroke-width="2" stroke-linejoin="round" stroke-linecap="butt" d="M681.992 195.913H715v.063h21.008"/><path fill="#000" stroke="#000" stroke-width="2" stroke-linecap="butt" d="M736.008 199.28l9.076-3.304-9.076-3.303z" fill-rule="evenodd"/><path d="M748.008 177.63h178.016v36.63H748.008z"/><path fill="#000" d="M767.695 196.162q0 2.828-1.53 4.328-1.532 1.5-4.423 1.5h-3.156v-11.422h3.5q2.656 0 4.125 1.484 1.49 1.47 1.49 4.11zm-1.406.047q0-2.24-1.13-3.36-1.11-1.14-3.33-1.14h-1.92v9.12h1.61q2.37 0 3.56-1.16 1.2-1.17 1.2-3.47zm13.86.04q0 2.75-1.39 4.33-1.378 1.56-3.847 1.56-2.53 0-3.906-1.55-1.36-1.547-1.36-4.36 0-2.78 1.375-4.312 1.375-1.546 3.907-1.546 2.452 0 3.827 1.562 1.39 1.56 1.39 4.31zm-9.096 0q0 2.33.984 3.53.984 1.19 2.875 1.19 1.89 0 2.86-1.19.97-1.204.97-3.53 0-2.3-.97-3.487-.954-1.203-2.844-1.203-1.907 0-2.89 1.204-.985 1.205-.985 3.487zm16.695 5.73l-3.875-10.125h-.06q.11 1.203.11 2.86v7.265h-1.22v-11.42h2l3.61 9.422h.06l3.657-9.423h1.984v11.42h-1.33v-7.36q0-1.267.11-2.75h-.06l-3.907 10.11h-1.078z"/><path d="M598 497.992v18h.063v18"/><path stroke="#000" stroke-width="2" stroke-linejoin="round" stroke-linecap="butt" d="M598 509.992v6h.063v18"/><path fill="#000" stroke="#000" stroke-width="2" stroke-linecap="butt" d="M601.303 509.992L598 500.916l-3.303 9.076z" fill-rule="evenodd"/><path fill="#fff" d="M694.063 477.86c0-5.206 4.22-9.427 9.428-9.427h131.13c2.5 0 4.9.993 6.67 2.76 1.77 1.77 2.76 4.167 2.76 6.668v37.72c0 5.208-4.22 9.43-9.423 9.43H703.49c-5.206 0-9.427-4.22-9.427-9.428L600 523l94.063-21.57z"/><path stroke="#000" stroke-width="2" stroke-linejoin="round" stroke-linecap="butt" d="M694.063 477.86c0-5.206 4.22-9.427 9.428-9.427h131.13c2.5 0 4.9.993 6.67 2.76 1.77 1.77 2.76 4.167 2.76 6.668v37.72c0 5.208-4.22 9.43-9.423 9.43H703.49c-5.206 0-9.427-4.22-9.427-9.428L600 523l94.063-21.57z"/><path fill="#000" d="M733.844 487.248q0 2.83-1.53 4.33-1.532 1.5-4.423 1.5h-3.15v-11.423h3.5q2.66 0 4.13 1.484 1.484 1.46 1.484 4.1zm-1.406.047q0-2.234-1.125-3.36-1.11-1.14-3.328-1.14h-1.922v9.125h1.61q2.374 0 3.562-1.156 1.203-1.172 1.203-3.47zm13.867.047q0 2.75-1.39 4.328-1.375 1.563-3.844 1.563-2.53 0-3.9-1.547-1.36-1.547-1.36-4.36 0-2.78 1.38-4.312 1.375-1.547 3.906-1.547 2.454 0 3.83 1.563 1.39 1.562 1.39 4.312zm-9.094 0q0 2.328.99 3.53.99 1.19 2.88 1.19t2.86-1.19q.97-1.202.97-3.53 0-2.297-.97-3.484-.953-1.203-2.844-1.203-1.906 0-2.89 1.203-.985 1.203-.985 3.484zm16.7 5.735l-3.87-10.125h-.062q.11 1.203.11 2.86v7.265h-1.22v-11.422h2l3.61 9.422h.063l3.656-9.422h1.984v11.422h-1.33v-7.36q0-1.265.11-2.75h-.064l-3.904 10.11h-1.08zm16.98.156q-1.904 0-3-1.156-1.09-1.157-1.09-3.22 0-2.062 1.015-3.28 1.016-1.22 2.735-1.22 1.61 0 2.546 1.063.94 1.047.94 2.782v.828h-5.89q.03 1.5.75 2.28.734.782 2.046.782 1.377 0 2.737-.578v1.156q-.69.297-1.314.422-.61.14-1.47.14zm-.36-7.797q-1.03 0-1.64.672-.61.672-.72 1.86h4.47q0-1.22-.546-1.876-.546-.656-1.562-.656zm7.59 7.64l-3.25-8.562h1.39l1.844 5.078q.625 1.78.735 2.313h.06q.094-.422.547-1.72.454-1.296 2.048-5.67h1.39l-3.25 8.562h-1.514zm9.765.157q-1.906 0-3-1.156-1.093-1.157-1.093-3.22 0-2.062 1.015-3.28 1.018-1.22 2.737-1.22 1.61 0 2.548 1.063.936 1.047.936 2.782v.828h-5.89q.03 1.5.75 2.28.733.782 2.045.782 1.375 0 2.735-.578v1.156q-.69.297-1.314.422-.61.14-1.47.14zm-.36-7.797q-1.03 0-1.64.672-.61.672-.72 1.86h4.47q0-1.22-.546-1.876-.55-.656-1.565-.656zm11.57 7.64v-5.546q0-1.047-.483-1.563-.47-.515-1.484-.515-1.344 0-1.97.734-.624.72-.624 2.39v4.5h-1.296v-8.562h1.064l.204 1.172h.063q.404-.64 1.123-.984.72-.344 1.595-.344 1.546 0 2.327.75.78.734.78 2.375v5.594H799.1zm6.728-.92q.345 0 .657-.048.326-.047.514-.11v1q-.203.11-.625.172-.408.063-.737.063-2.485 0-2.485-2.625v-5.094h-1.218v-.625l1.22-.54.546-1.83h.75v1.984h2.483v1h-2.485v5.047q0 .768.36 1.19.374.407 1.015.407zm8.415-1.423q0 1.203-.89 1.86-.89.64-2.5.64-1.702 0-2.655-.547v-1.203q.61.312 1.313.5.718.172 1.375.172 1.015 0 1.56-.313.55-.328.55-1 0-.5-.437-.844-.437-.36-1.687-.843-1.204-.453-1.704-.782-.5-.328-.75-.75-.25-.42-.25-1.015 0-1.047.84-1.64.86-.61 2.34-.61 1.39 0 2.706.562l-.454 1.047q-1.296-.53-2.343-.53-.922 0-1.39.296-.47.28-.47.797 0 .343.17.593.19.235.58.454.39.218 1.5.625 1.515.562 2.046 1.125.547.562.547 1.406zm-102.56 16.953q0-2.063.61-3.86.61-1.812 1.75-3.17h1.267q-1.125 1.5-1.703 3.31-.562 1.798-.562 3.704 0 1.875.58 3.672.577 1.797 1.67 3.266h-1.25q-1.155-1.328-1.765-3.094-.595-1.78-.595-3.828zm8.89 4.547q-1.856 0-2.872-1.14-1.016-1.157-1.016-3.25 0-2.14 1.032-3.313 1.03-1.172 2.952-1.172.61 0 1.22.14.624.125.983.297l-.406 1.11q-.422-.172-.94-.282-.5-.125-.89-.125-2.61 0-2.61 3.33 0 1.577.626 2.42.64.844 1.89.844 1.08 0 2.204-.453v1.14q-.86.45-2.17.45zm9.464-.156l-.25-1.22h-.063q-.64.798-1.28 1.095-.64.28-1.596.28-1.264 0-2-.655-.717-.657-.717-1.875 0-2.594 4.156-2.72l1.453-.046v-.53q0-1-.437-1.486-.44-.484-1.39-.484-1.066 0-2.425.656l-.39-.984q.624-.344 1.374-.53.763-.205 1.513-.205 1.53 0 2.266.688.75.68.75 2.18v5.846h-.97zm-2.922-.922q1.204 0 1.89-.657.705-.67.705-1.86v-.78l-1.297.062q-1.547.047-2.234.485-.686.422-.686 1.312 0 .703.422 1.078.436.36 1.202.36zm10.54 1.078q-.83 0-1.53-.313-.69-.312-1.157-.953h-.094q.093.75.093 1.438v3.515h-1.3v-12.406h1.063l.17 1.172h.063q.5-.703 1.155-1.016.67-.312 1.53-.312 1.704 0 2.626 1.172.938 1.156.938 3.25 0 2.11-.953 3.28-.94 1.173-2.61 1.173zm-.187-7.78q-1.313 0-1.907.733-.578.72-.593 2.312v.282q0 1.812.59 2.593.61.766 1.94.766 1.11 0 1.735-.9.64-.907.64-2.485 0-1.594-.64-2.453-.626-.86-1.766-.86zm8.773 6.702q.344 0 .656-.047.326-.047.514-.11v1q-.203.11-.625.172-.407.063-.735.063-2.486 0-2.486-2.625v-5.094h-1.22v-.625l1.22-.54.545-1.83h.75v1.984h2.484v1h-2.486v5.047q0 .768.36 1.19.374.407 1.015.407zm4.102-7.64v5.546q0 1.05.468 1.57.485.518 1.5.518 1.344 0 1.97-.734.624-.735.624-2.39v-4.5h1.296v8.56h-1.078l-.188-1.155h-.062q-.406.64-1.11.985-.703.328-1.61.328-1.56 0-2.343-.734-.78-.75-.78-2.39v-5.596h1.31zm12.507-.157q.58 0 1.03.094l-.19 1.203q-.53-.125-.934-.125-1.032 0-1.782.843-.734.844-.734 2.11v4.594h-1.297v-8.563h1.078l.14 1.578h.064q.483-.828 1.155-1.28.67-.454 1.467-.454zm6.25 8.875q-1.905 0-3-1.156-1.092-1.157-1.092-3.22 0-2.062 1.014-3.28 1.017-1.22 2.736-1.22 1.608 0 2.546 1.063.936 1.047.936 2.782v.828h-5.89q.03 1.5.75 2.28.735.782 2.047.782 1.373 0 2.733-.578v1.156q-.688.297-1.313.422-.606.14-1.466.14zm-.36-7.797q-1.03 0-1.64.672-.61.672-.72 1.86h4.47q0-1.22-.546-1.876-.548-.656-1.564-.656zm13.854 7.797q-.83 0-1.533-.313-.686-.312-1.155-.953h-.096q.093.75.093 1.438v3.515h-1.3v-12.406h1.064l.172 1.172h.062q.5-.703 1.154-1.016.672-.312 1.532-.312 1.703 0 2.625 1.172.937 1.156.937 3.25 0 2.11-.952 3.28-.936 1.173-2.61 1.173zm-.19-7.78q-1.312 0-1.906.733-.576.72-.592 2.312v.282q0 1.812.596 2.593.61.766 1.938.766 1.11 0 1.736-.9.64-.907.64-2.485 0-1.594-.64-2.453-.626-.86-1.767-.86zm11.867 7.624v-5.547q0-1.047-.483-1.563-.47-.515-1.484-.515-1.344 0-1.97.734-.624.734-.624 2.406v4.485h-1.3V499.92h1.297v3.672q0 .672-.064 1.11h.077q.39-.625 1.097-.97.705-.36 1.61-.36 1.58 0 2.36.75.78.736.78 2.36v5.595h-1.295zm9.228 0l-.25-1.22h-.06q-.64.798-1.28 1.095-.64.28-1.596.28-1.266 0-2-.655-.72-.657-.72-1.875 0-2.594 4.155-2.72l1.454-.046v-.53q0-1-.44-1.486-.44-.484-1.39-.484-1.065 0-2.424.656l-.39-.984q.624-.344 1.374-.53.768-.205 1.518-.205 1.53 0 2.267.688.75.68.75 2.18v5.846h-.97zm-2.92-.922q1.203 0 1.89-.657.704-.67.704-1.86v-.78l-1.298.062q-1.548.047-2.235.485-.69.422-.69 1.312 0 .703.424 1.078.437.36 1.203.36zm12.086-1.422q0 1.203-.89 1.86-.89.64-2.5.64-1.704 0-2.66-.547v-1.203q.61.312 1.315.5.72.172 1.376.172 1.015 0 1.56-.313.55-.328.55-1 0-.5-.44-.844-.437-.36-1.687-.843-1.2-.453-1.7-.782-.5-.328-.75-.75-.25-.42-.25-1.015 0-1.047.842-1.64.86-.61 2.345-.61 1.39 0 2.704.562l-.453 1.047q-1.295-.53-2.34-.53-.92 0-1.39.296-.47.28-.47.797 0 .343.172.593.19.235.58.454.39.218 1.5.625 1.516.562 2.047 1.125.547.562.547 1.406zm5.727 2.5q-1.908 0-3-1.156-1.095-1.157-1.095-3.22 0-2.062 1.014-3.28 1.016-1.22 2.735-1.22 1.61 0 2.547 1.063.936 1.047.936 2.782v.828h-5.89q.03 1.5.75 2.28.734.782 2.046.782 1.373 0 2.733-.578v1.156q-.688.297-1.313.422-.61.14-1.466.14zm-.36-7.797q-1.03 0-1.64.672-.61.672-.72 1.86h4.47q0-1.22-.548-1.876-.55-.656-1.566-.656zm8.43 3.25q0 2.062-.61 3.844-.594 1.765-1.735 3.078h-1.25q1.077-1.47 1.655-3.266.58-1.797.58-3.672 0-1.906-.562-3.703-.56-1.812-1.686-3.312h1.266q1.14 1.36 1.735 3.172.61 1.812.61 3.86z"/></g></svg>
